<?xml version="1.0" standalone="no"?>
<!DOCTYPE svg PUBLIC "-//W3C//DTD SVG 1.1//EN" "http://www.w3.org/Graphics/SVG/1.1/DTD/svg11.dtd" >
<svg xmlns="http://www.w3.org/2000/svg" xmlns:xlink="http://www.w3.org/1999/xlink" version="1.1">
<metadata>
Created by FontForge 20150804 at Mon Nov 12 18:58:10 2018
 By cloudconvert
(c) 2015 Klim Type Foundry. All Rights Reserved.
</metadata>
<defs>
<font id="PayPalSansBig-Medium" horiz-adv-x="285" >
  <font-face 
    font-family="PayPal Sans Big Medium"
    font-weight="600"
    font-stretch="normal"
    units-per-em="1024"
    panose-1="2 11 6 3 4 5 4 4 2 4"
    ascent="819"
    descent="-205"
    x-height="516"
    cap-height="700"
    bbox="-98 -240 1302 1015"
    underline-thickness="117"
    underline-position="-153"
    unicode-range="U+0020-FB02"
  />
<missing-glyph horiz-adv-x="256" 
 />
    <glyph glyph-name="f_b" unicode="fb" horiz-adv-x="971" 
d="M904.5 127q-37.5 -65 -103 -101.5t-148.5 -36.5q-124 0 -228 49v634q-21 8 -47 8q-64 0 -101 -38.5t-37 -107.5v-18h122l-19 -112h-103v-404h-150v404h-69v112h69v17q0 77 38.5 138.5t107 96t154.5 34.5q44 0 93 -9t92 -23v-300q25 24 62.5 40.5t82.5 16.5q67 0 117 -31
t77.5 -88.5t27.5 -132.5q0 -83 -37.5 -148zM652 108q62 0 100 43t38 116q0 61 -30.5 97.5t-86.5 36.5q-27 0 -55 -9t-43 -22v-248q34 -14 77 -14z" />
    <glyph glyph-name="f_f_b" unicode="ffb" horiz-adv-x="1305" 
d="M1238.5 127q-37.5 -65 -103 -101.5t-148.5 -36.5q-124 0 -228 49v634q-21 8 -47 8q-64 0 -101 -38.5t-37 -107.5v-18h122l-19 -112h-103v-404h-150v404h-184v-404h-150v404h-69v112h69v13q0 76 27.5 134t79.5 90t123 32q42 0 76 -11v-117q-17 6 -45 6q-52 0 -81.5 -34
t-29.5 -96v-17h184v17q0 77 38.5 138.5t107 96t154.5 34.5q44 0 93 -9t92 -23v-300q25 24 62.5 40.5t82.5 16.5q67 0 117 -31t77.5 -88.5t27.5 -132.5q0 -83 -37.5 -148zM986 108q62 0 100 43t38 116q0 61 -30.5 97.5t-86.5 36.5q-27 0 -55 -9t-43 -22v-248q34 -14 77 -14z
" />
    <glyph glyph-name="f_f_h" unicode="ffh" horiz-adv-x="1311" 
d="M90 404h-69v112h69v13q0 76 27.5 134t79.5 90t123 32q42 0 76 -11v-117q-17 6 -45 6q-52 0 -81.5 -34t-29.5 -96v-17h184v17q0 77 38.5 138.5t107 96t154.5 34.5q44 0 93 -9t92 -23v-300q31 24 72.5 40.5t91.5 16.5q82 0 129 -49t47 -130v-348h-150v311q0 88 -86 88
q-56 0 -104 -29v-370h-150v672q-21 8 -47 8q-64 0 -101 -38.5t-37 -107.5v-18h122l-19 -112h-103v-404h-150v404h-184v-404h-150v404z" />
    <glyph glyph-name="f_f_idieresis" unicode="ff&#xef;" horiz-adv-x="976" 
d="M90 404h-69v112h69v13q0 76 27.5 134t79.5 90t123 32q42 0 76 -11v-117q-17 6 -45 6q-52 0 -81.5 -34t-29.5 -96v-17h184v29q0 76 30.5 134.5t88 90.5t135.5 32q46 0 89 -14v-117q-35 9 -67 9q-61 0 -93.5 -34t-32.5 -97v-33h185l150 11v-527h-150v404h-185v-404h-150
v404h-184v-404h-150v404zM882 752.5q22 22.5 56 22.5q35 0 57 -22t22 -54q0 -33 -22 -54.5t-57 -21.5q-34 0 -56 21.5t-22 54.5q0 31 22 53.5z" />
    <glyph glyph-name="f_f_j" unicode="ffj" horiz-adv-x="976" 
d="M887.5 -117q-20.5 -61 -56.5 -111h-152q37 58 58 121.5t22 151.5v359h-185v-404h-150v404h-184v-404h-150v404h-69v112h69v13q0 76 27.5 134t79.5 90t123 32q42 0 76 -11v-117q-17 6 -45 6q-52 0 -81.5 -34t-29.5 -96v-17h184v13q0 81 35 143t99 96t149 34q60 0 103 -18
v-116q-41 12 -90 12q-71 0 -108.5 -38t-37.5 -107v-19h185l150 11v-499q-1 -84 -21.5 -145z" />
    <glyph glyph-name="f_f_k" unicode="ffk" horiz-adv-x="1294" 
d="M90 404h-69v112h69v13q0 76 27.5 134t79.5 90t123 32q42 0 76 -11v-117q-17 6 -45 6q-52 0 -81.5 -34t-29.5 -96v-17h184v17q0 77 38.5 138.5t107 96t154.5 34.5q44 0 93 -9t92 -23v-483l197 229h170l-207 -235l233 -281h-178l-215 259v-259h-150v672q-21 8 -47 8
q-64 0 -101 -38.5t-37 -107.5v-18h122l-19 -112h-103v-404h-150v404h-184v-404h-150v404z" />
    <glyph glyph-name="f_h" unicode="fh" horiz-adv-x="975" 
d="M90 0v404h-69v112h69v17q0 77 38.5 138.5t107 96t154.5 34.5q44 0 93 -9t92 -23v-300q31 24 72.5 40.5t91.5 16.5q82 0 129 -49t47 -130v-348h-150v311q0 88 -86 88q-56 0 -104 -29v-370h-150v672q-21 8 -47 8q-64 0 -101 -38.5t-37 -107.5v-18h122l-19 -112h-103v-404
h-150z" />
    <glyph glyph-name="f_idieresis" unicode="f&#xef;" horiz-adv-x="642" 
d="M90 404h-69v112h69v29q0 76 30.5 134.5t88 90.5t135.5 32q46 0 89 -14v-117q-35 9 -67 9q-61 0 -93.5 -34t-32.5 -97v-33h185l150 11v-527h-150v404h-185v-404h-150v404zM548 752.5q22 22.5 56 22.5q35 0 57 -22t22 -54q0 -33 -22 -54.5t-57 -21.5q-34 0 -56 21.5
t-22 54.5q0 31 22 53.5z" />
    <glyph glyph-name="f_j" unicode="fj" horiz-adv-x="642" 
d="M553.5 -117q-20.5 -61 -56.5 -111h-152q37 58 58 121.5t22 151.5v359h-185v-404h-150v404h-69v112h69v13q0 81 35 143t99 96t149 34q60 0 103 -18v-116q-41 12 -90 12q-71 0 -108.5 -38t-37.5 -107v-19h185l150 11v-499q-1 -84 -21.5 -145z" />
    <glyph glyph-name="f_k" unicode="fk" horiz-adv-x="960" 
d="M90 0v404h-69v112h69v17q0 77 38.5 138.5t107 96t154.5 34.5q44 0 93 -9t92 -23v-483l197 229h170l-207 -235l233 -281h-178l-215 259v-259h-150v672q-21 8 -47 8q-64 0 -101 -38.5t-37 -107.5v-18h122l-19 -112h-103v-404h-150z" />
    <glyph glyph-name="f_f" unicode="ff" horiz-adv-x="715" 
d="M90 404h-69v112h69v13q0 76 27.5 134t79.5 90t123 32q42 0 76 -11v-117q-17 6 -45 6q-52 0 -81.5 -34t-29.5 -96v-17h184v29q0 76 30.5 134.5t88 90.5t135.5 32q46 0 89 -14v-117q-35 9 -67 9q-61 0 -93.5 -34t-32.5 -97v-33h149l-18 -112h-131v-404h-150v404h-184v-404
h-150v404z" />
    <glyph glyph-name="f_f_i" unicode="ffi" horiz-adv-x="976" 
d="M90 404h-69v112h69v13q0 76 27.5 134t79.5 90t123 32q42 0 76 -11v-117q-17 6 -45 6q-52 0 -81.5 -34t-29.5 -96v-17h184v13q0 81 35 143t99 96t149 34q60 0 103 -18v-116q-41 12 -90 12q-71 0 -108.5 -38t-37.5 -107v-19h185l150 11v-527h-150v404h-185v-404h-150v404
h-184v-404h-150v404z" />
    <glyph glyph-name="f_f_l" unicode="ffl" horiz-adv-x="976" 
d="M90 404h-69v112h69v13q0 76 27.5 134t79.5 90t123 32q42 0 76 -11v-117q-17 6 -45 6q-52 0 -81.5 -34t-29.5 -96v-17h184v17q0 77 38.5 138.5t107 96t154.5 34.5q44 0 93 -9t92 -23v-770h-150v672q-21 8 -47 8q-64 0 -101 -38.5t-37 -107.5v-18h122l-19 -112h-103v-404
h-150v404h-184v-404h-150v404z" />
    <glyph glyph-name="fi" unicode="fi" horiz-adv-x="642" 
d="M90 404h-69v112h69v13q0 81 35 143t99 96t149 34q60 0 103 -18v-116q-41 12 -90 12q-71 0 -108.5 -38t-37.5 -107v-19h185l150 11v-527h-150v404h-185v-404h-150v404z" />
    <glyph glyph-name="fl" unicode="fl" horiz-adv-x="633" 
d="M378 680q-64 0 -101 -38.5t-37 -107.5v-18h122l-19 -112h-103v-404h-150v404h-69v112h69v17q0 77 38.5 138.5t107 96t154.5 34.5q44 0 93 -9t92 -23v-770h-150v672q-21 8 -47 8z" />
    <glyph glyph-name=".notdef" horiz-adv-x="256" 
 />
    <glyph glyph-name="space" unicode=" " horiz-adv-x="262" 
 />
    <glyph glyph-name="A" unicode="A" horiz-adv-x="740" 
d="M225 162l-64 -162h-150l288 700h143l288 -700h-157l-64 162h-284zM461 284l-93 237l-94 -237h187z" />
    <glyph glyph-name="Agrave" unicode="&#xc0;" horiz-adv-x="740" 
d="M119 927h215l106 -161h-120zM225 162l-64 -162h-150l288 700h143l288 -700h-157l-64 162h-284zM461 284l-93 237l-94 -237h187z" />
    <glyph glyph-name="Aacute" unicode="&#xc1;" horiz-adv-x="740" 
d="M410 927h214l-200 -161h-121zM225 162l-64 -162h-150l288 700h143l288 -700h-157l-64 162h-284zM461 284l-93 237l-94 -237h187z" />
    <glyph glyph-name="Acircumflex" unicode="&#xc2;" horiz-adv-x="740" 
d="M575 766h-108l-97 77l-98 -77h-107l134 161h143zM225 162l-64 -162h-150l288 700h143l288 -700h-157l-64 162h-284zM461 284l-93 237l-94 -237h187z" />
    <glyph glyph-name="Atilde" unicode="&#xc3;" horiz-adv-x="740" 
d="M405 770.5q-19 10.5 -47 31.5q-21 17 -36 25.5t-28 8.5q-22 0 -30 -17.5t-13 -52.5h-83q1 78 35.5 130t92.5 52q19 0 38 -10.5t47 -31.5q21 -17 36 -25.5t28 -8.5q22 0 29.5 17t12.5 54h83q-1 -79 -35 -131t-92 -52q-19 0 -38 10.5zM225 162l-64 -162h-150l288 700h143
l288 -700h-157l-64 162h-284zM461 284l-93 237l-94 -237h187z" />
    <glyph glyph-name="Adieresis" unicode="&#xc4;" horiz-adv-x="740" 
d="M209 897q22 22 57 22q34 0 56 -22t22 -54t-22 -54.5t-56 -22.5q-35 0 -57 22.5t-22 54.5t22 54zM418 897q22 22 57 22q34 0 56 -22t22 -54t-22 -54.5t-56 -22.5q-35 0 -57 22.5t-22 54.5t22 54zM225 162l-64 -162h-150l288 700h143l288 -700h-157l-64 162h-284zM461 284
l-93 237l-94 -237h187z" />
    <glyph glyph-name="Aring" unicode="&#xc5;" horiz-adv-x="740" 
d="M11 0l276 670q-23 19 -36.5 46.5t-13.5 58.5q0 37 18 67t48.5 47.5t65.5 17.5q36 0 67 -17.5t49 -47.5t18 -67q0 -31 -13 -58t-36 -46l276 -671h-157l-64 162h-284l-64 -162h-150zM412 731.5q17 17.5 17 43.5q0 25 -17 41.5t-43 16.5q-25 0 -41.5 -16.5t-16.5 -41.5
q0 -26 16.5 -43.5t41.5 -17.5q26 0 43 17.5zM461 284l-93 237l-94 -237h187z" />
    <glyph glyph-name="Amacron" unicode="&#x100;" horiz-adv-x="740" 
d="M192 894h357v-108h-357v108zM225 162l-64 -162h-150l288 700h143l288 -700h-157l-64 162h-284zM461 284l-93 237l-94 -237h187z" />
    <glyph glyph-name="Abreve" unicode="&#x102;" horiz-adv-x="740" 
d="M240 800.5q-52 42.5 -52 126.5h90q2 -36 28.5 -52t63.5 -16q38 0 64.5 16t27.5 52h90q0 -84 -52 -126.5t-130 -42.5t-130 42.5zM225 162l-64 -162h-150l288 700h143l288 -700h-157l-64 162h-284zM461 284l-93 237l-94 -237h187z" />
    <glyph glyph-name="Aogonek" unicode="&#x104;" horiz-adv-x="740" 
d="M604 -239q-45 0 -77.5 24.5t-32.5 71.5q0 79 78 145l-63 160h-284l-64 -162h-150l288 700h143l288 -700h-73q-31 -28 -48 -56t-17 -53q0 -19 11 -29.5t27 -10.5q15 0 25 6v-88q-30 -8 -51 -8zM461 284l-93 237l-94 -237h187z" />
    <glyph glyph-name="B" unicode="B" horiz-adv-x="662" 
d="M592.5 306q37.5 -44 37.5 -108q0 -91 -63.5 -144.5t-168.5 -53.5h-320v700h283q107 0 168.5 -49t61.5 -139q0 -51 -29 -90.5t-67 -53.5q60 -18 97.5 -62zM336 415q49 0 76 20t27 62q0 80 -103 80h-103v-162h103zM448 272.5q-27 21.5 -78 21.5h-137v-170h137q51 0 78 22.5
t27 63.5t-27 62.5z" />
    <glyph glyph-name="C" unicode="C" horiz-adv-x="645" 
d="M221 233q31 -50 86 -76.5t124 -26.5q86 0 166 37v-143q-46 -19 -87 -27t-87 -8q-109 0 -198.5 44.5t-141.5 126.5t-52 190t52 190t141.5 126.5t198.5 44.5q46 0 87 -8t87 -27v-143q-82 38 -166 38q-69 0 -124 -26.5t-86 -77t-31 -117.5t31 -117z" />
    <glyph glyph-name="Ccedilla" unicode="&#xc7;" horiz-adv-x="645" 
d="M271 -232q-28 7 -48 19v73q46 -23 98 -23q25 0 42 9t17 24q0 18 -23.5 26.5t-63.5 8.5l39 93q-87 17 -155.5 64.5t-107 121.5t-38.5 166q0 108 52 190t141.5 126.5t198.5 44.5q46 0 87 -8t87 -27v-143q-82 38 -166 38q-69 0 -124 -26.5t-86 -77t-31 -117.5t31 -117
t86 -76.5t124 -26.5q86 0 166 37v-143q-46 -19 -87 -27t-87 -8q-13 0 -39 2l-16 -38q45 -6 72.5 -28t27.5 -60q0 -46 -41.5 -75t-97.5 -29q-30 0 -58 7z" />
    <glyph glyph-name="Cacute" unicode="&#x106;" horiz-adv-x="645" 
d="M450 927h214l-200 -161h-121zM221 233q31 -50 86 -76.5t124 -26.5q86 0 166 37v-143q-46 -19 -87 -27t-87 -8q-109 0 -198.5 44.5t-141.5 126.5t-52 190t52 190t141.5 126.5t198.5 44.5q46 0 87 -8t87 -27v-143q-82 38 -166 38q-69 0 -124 -26.5t-86 -77t-31 -117.5
t31 -117z" />
    <glyph glyph-name="Ccircumflex" unicode="&#x108;" horiz-adv-x="645" 
d="M614 766h-108l-97 77l-98 -77h-107l134 161h143zM221 233q31 -50 86 -76.5t124 -26.5q86 0 166 37v-143q-46 -19 -87 -27t-87 -8q-109 0 -198.5 44.5t-141.5 126.5t-52 190t52 190t141.5 126.5t198.5 44.5q46 0 87 -8t87 -27v-143q-82 38 -166 38q-69 0 -124 -26.5
t-86 -77t-31 -117.5t31 -117z" />
    <glyph glyph-name="Cdotaccent" unicode="&#x10a;" horiz-adv-x="645" 
d="M346.5 911q24.5 24 62.5 24t62.5 -24t24.5 -60t-24.5 -60.5t-62.5 -24.5t-62.5 24.5t-24.5 60.5t24.5 60zM221 233q31 -50 86 -76.5t124 -26.5q86 0 166 37v-143q-46 -19 -87 -27t-87 -8q-109 0 -198.5 44.5t-141.5 126.5t-52 190t52 190t141.5 126.5t198.5 44.5
q46 0 87 -8t87 -27v-143q-82 38 -166 38q-69 0 -124 -26.5t-86 -77t-31 -117.5t31 -117z" />
    <glyph glyph-name="Ccaron" unicode="&#x10c;" horiz-adv-x="645" 
d="M204 937h107l98 -78l97 78h108l-133 -162h-143zM221 233q31 -50 86 -76.5t124 -26.5q86 0 166 37v-143q-46 -19 -87 -27t-87 -8q-109 0 -198.5 44.5t-141.5 126.5t-52 190t52 190t141.5 126.5t198.5 44.5q46 0 87 -8t87 -27v-143q-82 38 -166 38q-69 0 -124 -26.5
t-86 -77t-31 -117.5t31 -117z" />
    <glyph glyph-name="D" unicode="D" horiz-adv-x="757" 
d="M353 700q104 0 189.5 -42.5t135 -121.5t49.5 -185q0 -107 -49.5 -186.5t-135 -122t-189.5 -42.5h-275v700h275zM464 155.5q49 27.5 76.5 78t27.5 117.5q0 66 -27.5 116t-76.5 77.5t-113 27.5h-117v-444h117q64 0 113 27.5z" />
    <glyph glyph-name="Dcaron" unicode="&#x10e;" horiz-adv-x="757" 
d="M149 937h107l98 -78l97 78h108l-133 -162h-143zM353 700q104 0 189.5 -42.5t135 -121.5t49.5 -185q0 -107 -49.5 -186.5t-135 -122t-189.5 -42.5h-275v700h275zM464 155.5q49 27.5 76.5 78t27.5 117.5q0 66 -27.5 116t-76.5 77.5t-113 27.5h-117v-444h117q64 0 113 27.5z
" />
    <glyph glyph-name="E" unicode="E" horiz-adv-x="617" 
d="M550 700v-128h-317v-155h291v-127h-291v-162h329v-128h-484v700h472z" />
    <glyph glyph-name="Egrave" unicode="&#xc8;" horiz-adv-x="617" 
d="M78 927h215l106 -161h-120zM550 700v-128h-317v-155h291v-127h-291v-162h329v-128h-484v700h472z" />
    <glyph glyph-name="Eacute" unicode="&#xc9;" horiz-adv-x="617" 
d="M356 927h214l-200 -161h-121zM550 700v-128h-317v-155h291v-127h-291v-162h329v-128h-484v700h472z" />
    <glyph glyph-name="Ecircumflex" unicode="&#xca;" horiz-adv-x="617" 
d="M527 766h-108l-97 77l-98 -77h-107l134 161h143zM550 700v-128h-317v-155h291v-127h-291v-162h329v-128h-484v700h472z" />
    <glyph glyph-name="Edieresis" unicode="&#xcb;" horiz-adv-x="617" 
d="M161 897q22 22 57 22q34 0 56 -22t22 -54t-22 -54.5t-56 -22.5q-35 0 -57 22.5t-22 54.5t22 54zM370 897q22 22 57 22q34 0 56 -22t22 -54t-22 -54.5t-56 -22.5q-35 0 -57 22.5t-22 54.5t22 54zM550 700v-128h-317v-155h291v-127h-291v-162h329v-128h-484v700h472z" />
    <glyph glyph-name="Emacron" unicode="&#x112;" horiz-adv-x="617" 
d="M144 894h357v-108h-357v108zM550 700v-128h-317v-155h291v-127h-291v-162h329v-128h-484v700h472z" />
    <glyph glyph-name="Ebreve" unicode="&#x114;" horiz-adv-x="617" 
d="M192 800.5q-52 42.5 -52 126.5h90q2 -36 28.5 -52t63.5 -16q38 0 64.5 16t27.5 52h90q0 -84 -52 -126.5t-130 -42.5t-130 42.5zM550 700v-128h-317v-155h291v-127h-291v-162h329v-128h-484v700h472z" />
    <glyph glyph-name="Edotaccent" unicode="&#x116;" horiz-adv-x="617" 
d="M259.5 911q24.5 24 62.5 24t62.5 -24t24.5 -60t-24.5 -60.5t-62.5 -24.5t-62.5 24.5t-24.5 60.5t24.5 60zM550 700v-128h-317v-155h291v-127h-291v-162h329v-128h-484v700h472z" />
    <glyph glyph-name="Eogonek" unicode="&#x118;" horiz-adv-x="617" 
d="M461 -239q-45 0 -77.5 24.5t-32.5 71.5q0 78 76 143h-349v700h472v-128h-317v-155h291v-127h-291v-162h329v-128h-48q-31 -28 -48 -56t-17 -53q0 -19 11 -29.5t27 -10.5q15 0 25 6v-88q-30 -8 -51 -8z" />
    <glyph glyph-name="Ecaron" unicode="&#x11a;" horiz-adv-x="617" 
d="M117 937h107l98 -78l97 78h108l-133 -162h-143zM550 700v-128h-317v-155h291v-127h-291v-162h329v-128h-484v700h472z" />
    <glyph glyph-name="F" unicode="F" horiz-adv-x="597" 
d="M78 700h469v-128h-313v-170h282v-127h-282v-275h-156v700z" />
    <glyph glyph-name="G" unicode="G" horiz-adv-x="693" 
d="M307 542.5q-56 -28.5 -87 -80t-31 -118.5q0 -73 31.5 -123t84 -74t116.5 -24q36 0 61 5v188h150v-299q-48 -13 -104 -20.5t-108 -7.5q-109 0 -197.5 42.5t-140 123t-51.5 189.5q0 107 53.5 190.5t146 130t205.5 46.5q97 0 189 -37v-143q-42 20 -91 30t-98 10
q-73 0 -129 -28.5z" />
    <glyph glyph-name="Gcircumflex" unicode="&#x11c;" horiz-adv-x="693" 
d="M630 766h-108l-97 77l-98 -77h-107l134 161h143zM307 542.5q-56 -28.5 -87 -80t-31 -118.5q0 -73 31.5 -123t84 -74t116.5 -24q36 0 61 5v188h150v-299q-48 -13 -104 -20.5t-108 -7.5q-109 0 -197.5 42.5t-140 123t-51.5 189.5q0 107 53.5 190.5t146 130t205.5 46.5
q97 0 189 -37v-143q-42 20 -91 30t-98 10q-73 0 -129 -28.5z" />
    <glyph glyph-name="Gbreve" unicode="&#x11e;" horiz-adv-x="693" 
d="M294 800.5q-52 42.5 -52 126.5h90q2 -36 28.5 -52t63.5 -16q38 0 64.5 16t27.5 52h90q0 -84 -52 -126.5t-130 -42.5t-130 42.5zM307 542.5q-56 -28.5 -87 -80t-31 -118.5q0 -73 31.5 -123t84 -74t116.5 -24q36 0 61 5v188h150v-299q-48 -13 -104 -20.5t-108 -7.5
q-109 0 -197.5 42.5t-140 123t-51.5 189.5q0 107 53.5 190.5t146 130t205.5 46.5q97 0 189 -37v-143q-42 20 -91 30t-98 10q-73 0 -129 -28.5z" />
    <glyph glyph-name="Gdotaccent" unicode="&#x120;" horiz-adv-x="693" 
d="M361.5 911q24.5 24 62.5 24t62.5 -24t24.5 -60t-24.5 -60.5t-62.5 -24.5t-62.5 24.5t-24.5 60.5t24.5 60zM307 542.5q-56 -28.5 -87 -80t-31 -118.5q0 -73 31.5 -123t84 -74t116.5 -24q36 0 61 5v188h150v-299q-48 -13 -104 -20.5t-108 -7.5q-109 0 -197.5 42.5t-140 123
t-51.5 189.5q0 107 53.5 190.5t146 130t205.5 46.5q97 0 189 -37v-143q-42 20 -91 30t-98 10q-73 0 -129 -28.5z" />
    <glyph glyph-name="uni0122" unicode="&#x122;" horiz-adv-x="693" 
d="M307 542.5q-56 -28.5 -87 -80t-31 -118.5q0 -73 31.5 -123t84 -74t116.5 -24q36 0 61 5v188h150v-299q-48 -13 -104 -20.5t-108 -7.5q-109 0 -197.5 42.5t-140 123t-51.5 189.5q0 107 53.5 190.5t146 130t205.5 46.5q97 0 189 -37v-143q-42 20 -91 30t-98 10
q-73 0 -129 -28.5zM463.5 -159.5q-34.5 -55.5 -75.5 -80.5h-91q26 35 43 86t17 108h141q0 -58 -34.5 -113.5z" />
    <glyph glyph-name="H" unicode="H" horiz-adv-x="784" 
d="M234 290v-290h-156v700h156v-283h316v283h155v-700h-155v290h-316z" />
    <glyph glyph-name="Hcircumflex" unicode="&#x124;" horiz-adv-x="784" 
d="M597 766h-108l-97 77l-98 -77h-107l134 161h143zM234 290v-290h-156v700h156v-283h316v283h155v-700h-155v290h-316z" />
    <glyph glyph-name="I" unicode="I" horiz-adv-x="313" 
d="M234 700v-700h-156v700h156z" />
    <glyph glyph-name="Igrave" unicode="&#xcc;" horiz-adv-x="313" 
d="M-98 927h215l106 -161h-120zM234 700v-700h-156v700h156z" />
    <glyph glyph-name="Iacute" unicode="&#xcd;" horiz-adv-x="313" 
d="M199 927h214l-200 -161h-121zM234 700v-700h-156v700h156z" />
    <glyph glyph-name="Icircumflex" unicode="&#xce;" horiz-adv-x="313" 
d="M361 766h-108l-97 77l-98 -77h-107l134 161h143zM234 700v-700h-156v700h156z" />
    <glyph glyph-name="Idieresis" unicode="&#xcf;" horiz-adv-x="313" 
d="M-5 897q22 22 57 22q34 0 56 -22t22 -54t-22 -54.5t-56 -22.5q-35 0 -57 22.5t-22 54.5t22 54zM204 897q22 22 57 22q34 0 56 -22t22 -54t-22 -54.5t-56 -22.5q-35 0 -57 22.5t-22 54.5t22 54zM234 700v-700h-156v700h156z" />
    <glyph glyph-name="Itilde" unicode="&#x128;" horiz-adv-x="313" 
d="M191 770.5q-19 10.5 -47 31.5q-21 17 -36 25.5t-28 8.5q-22 0 -30 -17.5t-13 -52.5h-83q1 78 35.5 130t92.5 52q19 0 38 -10.5t47 -31.5q21 -17 36 -25.5t28 -8.5q22 0 29.5 17t12.5 54h83q-1 -79 -35 -131t-92 -52q-19 0 -38 10.5zM234 700v-700h-156v700h156z" />
    <glyph glyph-name="Imacron" unicode="&#x12a;" horiz-adv-x="313" 
d="M-22 894h357v-108h-357v108zM234 700v-700h-156v700h156z" />
    <glyph glyph-name="Ibreve" unicode="&#x12c;" horiz-adv-x="313" 
d="M26 800.5q-52 42.5 -52 126.5h90q2 -36 28.5 -52t63.5 -16q38 0 64.5 16t27.5 52h90q0 -84 -52 -126.5t-130 -42.5t-130 42.5zM234 700v-700h-156v700h156z" />
    <glyph glyph-name="Iogonek" unicode="&#x12e;" horiz-adv-x="313" 
d="M174 -239q-45 0 -77.5 24.5t-32.5 71.5q0 78 76 143h-62v700h156v-700q-35 -26 -53.5 -54t-18.5 -55q0 -19 11 -29.5t27 -10.5q15 0 25 6v-88q-30 -8 -51 -8z" />
    <glyph glyph-name="Idotaccent" unicode="&#x130;" horiz-adv-x="313" 
d="M93.5 911q24.5 24 62.5 24t62.5 -24t24.5 -60t-24.5 -60.5t-62.5 -24.5t-62.5 24.5t-24.5 60.5t24.5 60zM234 700v-700h-156v700h156z" />
    <glyph glyph-name="J" unicode="J" horiz-adv-x="313" 
d="M207.5 -106q-26.5 -71 -74.5 -122h-163q51 64 79.5 136t28.5 166v626h156v-633q0 -102 -26.5 -173z" />
    <glyph glyph-name="Jcircumflex" unicode="&#x134;" horiz-adv-x="313" 
d="M362 766h-108l-97 77l-98 -77h-107l134 161h143zM207.5 -106q-26.5 -71 -74.5 -122h-163q51 64 79.5 136t28.5 166v626h156v-633q0 -102 -26.5 -173z" />
    <glyph glyph-name="K" unicode="K" horiz-adv-x="732" 
d="M234 0h-156v700h156v-320l285 320h187l-304 -328l339 -372h-193l-314 344v-344z" />
    <glyph glyph-name="uni0136" unicode="&#x136;" horiz-adv-x="732" 
d="M234 0h-156v700h156v-320l285 320h187l-304 -328l339 -372h-193l-314 344v-344zM397.5 -159.5q-34.5 -55.5 -75.5 -80.5h-91q26 35 43 86t17 108h141q0 -58 -34.5 -113.5z" />
    <glyph glyph-name="L" unicode="L" horiz-adv-x="599" 
d="M234 128h326v-128h-482v700h156v-572z" />
    <glyph glyph-name="Lacute" unicode="&#x139;" horiz-adv-x="599" 
d="M209 927h214l-200 -161h-121zM234 128h326v-128h-482v700h156v-572z" />
    <glyph glyph-name="uni013B" unicode="&#x13b;" horiz-adv-x="599" 
d="M234 128h326v-128h-482v700h156v-572zM355.5 -159.5q-34.5 -55.5 -75.5 -80.5h-91q26 35 43 86t17 108h141q0 -58 -34.5 -113.5z" />
    <glyph glyph-name="Lcaron" unicode="&#x13d;" horiz-adv-x="599" 
d="M531 701l-100 -243h-86l31 243h155zM234 128h326v-128h-482v700h156v-572z" />
    <glyph glyph-name="M" unicode="M" horiz-adv-x="915" 
d="M254 465l-63 -465h-147l99 700h147l167 -436l168 436h146l100 -700h-150l-63 465l-143 -370h-118z" />
    <glyph glyph-name="N" unicode="N" horiz-adv-x="777" 
d="M226 0h-148v700h150l322 -466v466h149v-700h-133l-340 475v-475z" />
    <glyph glyph-name="Ntilde" unicode="&#xd1;" horiz-adv-x="777" 
d="M424 770.5q-19 10.5 -47 31.5q-21 17 -36 25.5t-28 8.5q-22 0 -30 -17.5t-13 -52.5h-83q1 78 35.5 130t92.5 52q19 0 38 -10.5t47 -31.5q21 -17 36 -25.5t28 -8.5q22 0 29.5 17t12.5 54h83q-1 -79 -35 -131t-92 -52q-19 0 -38 10.5zM226 0h-148v700h150l322 -466v466h149
v-700h-133l-340 475v-475z" />
    <glyph glyph-name="Nacute" unicode="&#x143;" horiz-adv-x="777" 
d="M429 927h214l-200 -161h-121zM226 0h-148v700h150l322 -466v466h149v-700h-133l-340 475v-475z" />
    <glyph glyph-name="uni0145" unicode="&#x145;" horiz-adv-x="777" 
d="M226 0h-148v700h150l322 -466v466h149v-700h-133l-340 475v-475zM425.5 -159.5q-34.5 -55.5 -75.5 -80.5h-91q26 35 43 86t17 108h141q0 -58 -34.5 -113.5z" />
    <glyph glyph-name="Ncaron" unicode="&#x147;" horiz-adv-x="777" 
d="M183 937h107l98 -78l97 78h108l-133 -162h-143zM226 0h-148v700h150l322 -466v466h149v-700h-133l-340 475v-475z" />
    <glyph glyph-name="O" unicode="O" horiz-adv-x="780" 
d="M80 537.5q49 82.5 131 128t179 45.5t179.5 -45.5t131.5 -128t49 -187.5t-49 -187.5t-131.5 -128t-179.5 -45.5t-179 45.5t-131 128t-49 187.5t49 187.5zM565.5 465q-25.5 50 -71.5 78t-104 28t-104 -28t-71.5 -78t-25.5 -115t25.5 -115t71.5 -78t104 -28t104 28t71.5 78
t25.5 115t-25.5 115z" />
    <glyph glyph-name="Ograve" unicode="&#xd2;" horiz-adv-x="780" 
d="M140 927h215l106 -161h-120zM80 537.5q49 82.5 131 128t179 45.5t179.5 -45.5t131.5 -128t49 -187.5t-49 -187.5t-131.5 -128t-179.5 -45.5t-179 45.5t-131 128t-49 187.5t49 187.5zM565.5 465q-25.5 50 -71.5 78t-104 28t-104 -28t-71.5 -78t-25.5 -115t25.5 -115
t71.5 -78t104 -28t104 28t71.5 78t25.5 115t-25.5 115z" />
    <glyph glyph-name="Oacute" unicode="&#xd3;" horiz-adv-x="780" 
d="M431 927h214l-200 -161h-121zM80 537.5q49 82.5 131 128t179 45.5t179.5 -45.5t131.5 -128t49 -187.5t-49 -187.5t-131.5 -128t-179.5 -45.5t-179 45.5t-131 128t-49 187.5t49 187.5zM565.5 465q-25.5 50 -71.5 78t-104 28t-104 -28t-71.5 -78t-25.5 -115t25.5 -115
t71.5 -78t104 -28t104 28t71.5 78t25.5 115t-25.5 115z" />
    <glyph glyph-name="Ocircumflex" unicode="&#xd4;" horiz-adv-x="780" 
d="M595 766h-108l-97 77l-98 -77h-107l134 161h143zM80 537.5q49 82.5 131 128t179 45.5t179.5 -45.5t131.5 -128t49 -187.5t-49 -187.5t-131.5 -128t-179.5 -45.5t-179 45.5t-131 128t-49 187.5t49 187.5zM565.5 465q-25.5 50 -71.5 78t-104 28t-104 -28t-71.5 -78
t-25.5 -115t25.5 -115t71.5 -78t104 -28t104 28t71.5 78t25.5 115t-25.5 115z" />
    <glyph glyph-name="Otilde" unicode="&#xd5;" horiz-adv-x="780" 
d="M426 770.5q-19 10.5 -47 31.5q-21 17 -36 25.5t-28 8.5q-22 0 -30 -17.5t-13 -52.5h-83q1 78 35.5 130t92.5 52q19 0 38 -10.5t47 -31.5q21 -17 36 -25.5t28 -8.5q22 0 29.5 17t12.5 54h83q-1 -79 -35 -131t-92 -52q-19 0 -38 10.5zM80 537.5q49 82.5 131 128t179 45.5
t179.5 -45.5t131.5 -128t49 -187.5t-49 -187.5t-131.5 -128t-179.5 -45.5t-179 45.5t-131 128t-49 187.5t49 187.5zM565.5 465q-25.5 50 -71.5 78t-104 28t-104 -28t-71.5 -78t-25.5 -115t25.5 -115t71.5 -78t104 -28t104 28t71.5 78t25.5 115t-25.5 115z" />
    <glyph glyph-name="Odieresis" unicode="&#xd6;" horiz-adv-x="780" 
d="M229 897q22 22 57 22q34 0 56 -22t22 -54t-22 -54.5t-56 -22.5q-35 0 -57 22.5t-22 54.5t22 54zM438 897q22 22 57 22q34 0 56 -22t22 -54t-22 -54.5t-56 -22.5q-35 0 -57 22.5t-22 54.5t22 54zM80 537.5q49 82.5 131 128t179 45.5t179.5 -45.5t131.5 -128t49 -187.5
t-49 -187.5t-131.5 -128t-179.5 -45.5t-179 45.5t-131 128t-49 187.5t49 187.5zM565.5 465q-25.5 50 -71.5 78t-104 28t-104 -28t-71.5 -78t-25.5 -115t25.5 -115t71.5 -78t104 -28t104 28t71.5 78t25.5 115t-25.5 115z" />
    <glyph glyph-name="Omacron" unicode="&#x14c;" horiz-adv-x="780" 
d="M212 894h357v-108h-357v108zM80 537.5q49 82.5 131 128t179 45.5t179.5 -45.5t131.5 -128t49 -187.5t-49 -187.5t-131.5 -128t-179.5 -45.5t-179 45.5t-131 128t-49 187.5t49 187.5zM565.5 465q-25.5 50 -71.5 78t-104 28t-104 -28t-71.5 -78t-25.5 -115t25.5 -115
t71.5 -78t104 -28t104 28t71.5 78t25.5 115t-25.5 115z" />
    <glyph glyph-name="Obreve" unicode="&#x14e;" horiz-adv-x="780" 
d="M260 800.5q-52 42.5 -52 126.5h90q2 -36 28.5 -52t63.5 -16q38 0 64.5 16t27.5 52h90q0 -84 -52 -126.5t-130 -42.5t-130 42.5zM80 537.5q49 82.5 131 128t179 45.5t179.5 -45.5t131.5 -128t49 -187.5t-49 -187.5t-131.5 -128t-179.5 -45.5t-179 45.5t-131 128t-49 187.5
t49 187.5zM565.5 465q-25.5 50 -71.5 78t-104 28t-104 -28t-71.5 -78t-25.5 -115t25.5 -115t71.5 -78t104 -28t104 28t71.5 78t25.5 115t-25.5 115z" />
    <glyph glyph-name="Ohungarumlaut" unicode="&#x150;" horiz-adv-x="780" 
d="M487 927l-155 -161h-96l94 161h157zM688 927l-155 -161h-97l95 161h157zM80 537.5q49 82.5 131 128t179 45.5t179.5 -45.5t131.5 -128t49 -187.5t-49 -187.5t-131.5 -128t-179.5 -45.5t-179 45.5t-131 128t-49 187.5t49 187.5zM565.5 465q-25.5 50 -71.5 78t-104 28
t-104 -28t-71.5 -78t-25.5 -115t25.5 -115t71.5 -78t104 -28t104 28t71.5 78t25.5 115t-25.5 115z" />
    <glyph glyph-name="P" unicode="P" horiz-adv-x="656" 
d="M234 0h-156v700h284q78 0 138 -28t93 -79t33 -120q0 -68 -33 -119.5t-93 -79.5t-138 -28h-128v-246zM435 546.5q-31 25.5 -85 25.5h-116v-198h116q54 0 85 26t31 73q0 48 -31 73.5z" />
    <glyph glyph-name="Q" unicode="Q" horiz-adv-x="780" 
d="M473.5 -190.5q-57.5 23.5 -100.5 71t-61 116.5q-80 17 -143.5 65.5t-100.5 122.5t-37 165q0 105 49 187.5t131 128t179 45.5t179.5 -45.5t131.5 -128t49 -187.5q0 -89 -35.5 -162.5t-98 -122t-140.5 -66.5q18 -43 57 -63.5t87 -20.5q34 0 68 12v-124q-36 -17 -94 -17
q-63 0 -120.5 23.5zM565.5 465q-25.5 50 -71.5 78t-104 28t-104 -28t-71.5 -78t-25.5 -115t25.5 -115t71.5 -78t104 -28t104 28t71.5 78t25.5 115t-25.5 115z" />
    <glyph glyph-name="R" unicode="R" horiz-adv-x="698" 
d="M429 112.5q-50 67.5 -95 140.5h-100v-253h-156v700h266q126 0 196 -57.5t70 -159.5q0 -67 -37 -117.5t-93 -76.5q39 -65 107 -149t125 -140h-188q-45 45 -95 112.5zM378 376q32 11 52.5 37t20.5 67q0 43 -30.5 67.5t-83.5 24.5h-103v-196h144z" />
    <glyph glyph-name="Racute" unicode="&#x154;" horiz-adv-x="698" 
d="M374 927h214l-200 -161h-121zM429 112.5q-50 67.5 -95 140.5h-100v-253h-156v700h266q126 0 196 -57.5t70 -159.5q0 -67 -37 -117.5t-93 -76.5q39 -65 107 -149t125 -140h-188q-45 45 -95 112.5zM378 376q32 11 52.5 37t20.5 67q0 43 -30.5 67.5t-83.5 24.5h-103v-196
h144z" />
    <glyph glyph-name="uni0156" unicode="&#x156;" horiz-adv-x="698" 
d="M429 112.5q-50 67.5 -95 140.5h-100v-253h-156v700h266q126 0 196 -57.5t70 -159.5q0 -67 -37 -117.5t-93 -76.5q39 -65 107 -149t125 -140h-188q-45 45 -95 112.5zM378 376q32 11 52.5 37t20.5 67q0 43 -30.5 67.5t-83.5 24.5h-103v-196h144zM390.5 -159.5
q-34.5 -55.5 -75.5 -80.5h-91q26 35 43 86t17 108h141q0 -58 -34.5 -113.5z" />
    <glyph glyph-name="Rcaron" unicode="&#x158;" horiz-adv-x="698" 
d="M128 937h107l98 -78l97 78h108l-133 -162h-143zM429 112.5q-50 67.5 -95 140.5h-100v-253h-156v700h266q126 0 196 -57.5t70 -159.5q0 -67 -37 -117.5t-93 -76.5q39 -65 107 -149t125 -140h-188q-45 45 -95 112.5zM378 376q32 11 52.5 37t20.5 67q0 43 -30.5 67.5
t-83.5 24.5h-103v-196h144z" />
    <glyph glyph-name="S" unicode="S" horiz-adv-x="602" 
d="M151.5 138.5q62.5 -16.5 117.5 -16.5q60 0 95.5 19t35.5 60q0 30 -30 48t-96 41q-67 23 -110.5 44t-74.5 60.5t-31 100.5q0 59 33.5 108.5t94 78.5t137.5 29q55 0 103 -11t96 -36v-141q-92 56 -190 56q-55 0 -86.5 -21t-31.5 -55q0 -30 30 -47.5t97 -41.5
q67 -22 111 -43.5t75.5 -61t31.5 -100.5q0 -65 -38 -115t-104 -77.5t-147 -27.5q-64 0 -126.5 14t-109.5 39v146q55 -33 117.5 -49.5z" />
    <glyph glyph-name="Sacute" unicode="&#x15a;" horiz-adv-x="602" 
d="M369 927h214l-200 -161h-121zM151.5 138.5q62.5 -16.5 117.5 -16.5q60 0 95.5 19t35.5 60q0 30 -30 48t-96 41q-67 23 -110.5 44t-74.5 60.5t-31 100.5q0 59 33.5 108.5t94 78.5t137.5 29q55 0 103 -11t96 -36v-141q-92 56 -190 56q-55 0 -86.5 -21t-31.5 -55
q0 -30 30 -47.5t97 -41.5q67 -22 111 -43.5t75.5 -61t31.5 -100.5q0 -65 -38 -115t-104 -77.5t-147 -27.5q-64 0 -126.5 14t-109.5 39v146q55 -33 117.5 -49.5z" />
    <glyph glyph-name="Scircumflex" unicode="&#x15c;" horiz-adv-x="602" 
d="M532 766h-108l-97 77l-98 -77h-107l134 161h143zM151.5 138.5q62.5 -16.5 117.5 -16.5q60 0 95.5 19t35.5 60q0 30 -30 48t-96 41q-67 23 -110.5 44t-74.5 60.5t-31 100.5q0 59 33.5 108.5t94 78.5t137.5 29q55 0 103 -11t96 -36v-141q-92 56 -190 56q-55 0 -86.5 -21
t-31.5 -55q0 -30 30 -47.5t97 -41.5q67 -22 111 -43.5t75.5 -61t31.5 -100.5q0 -65 -38 -115t-104 -77.5t-147 -27.5q-64 0 -126.5 14t-109.5 39v146q55 -33 117.5 -49.5z" />
    <glyph glyph-name="uni015E" unicode="&#x15e;" horiz-adv-x="602" 
d="M177 -232q-28 7 -48 19v73q46 -23 98 -23q25 0 42 9t17 24q0 18 -23.5 26.5t-63.5 8.5l36 85q-56 4 -108.5 17.5t-92.5 34.5v146q55 -33 117.5 -49.5t117.5 -16.5q60 0 95.5 19t35.5 60q0 30 -30 48t-96 41q-67 23 -110.5 44t-74.5 60.5t-31 100.5q0 59 33.5 108.5
t94 78.5t137.5 29q55 0 103 -11t96 -36v-141q-92 56 -190 56q-55 0 -86.5 -21t-31.5 -55q0 -30 30 -47.5t97 -41.5q67 -22 111 -43.5t75.5 -61t31.5 -100.5q0 -63 -35 -111.5t-96.5 -76.5t-138.5 -32l-15 -36q45 -6 72.5 -28t27.5 -60q0 -46 -41.5 -75t-97.5 -29
q-30 0 -58 7z" />
    <glyph glyph-name="Scaron" unicode="&#x160;" horiz-adv-x="602" 
d="M122 937h107l98 -78l97 78h108l-133 -162h-143zM151.5 138.5q62.5 -16.5 117.5 -16.5q60 0 95.5 19t35.5 60q0 30 -30 48t-96 41q-67 23 -110.5 44t-74.5 60.5t-31 100.5q0 59 33.5 108.5t94 78.5t137.5 29q55 0 103 -11t96 -36v-141q-92 56 -190 56q-55 0 -86.5 -21
t-31.5 -55q0 -30 30 -47.5t97 -41.5q67 -22 111 -43.5t75.5 -61t31.5 -100.5q0 -65 -38 -115t-104 -77.5t-147 -27.5q-64 0 -126.5 14t-109.5 39v146q55 -33 117.5 -49.5z" />
    <glyph glyph-name="uni0218" unicode="&#x218;" horiz-adv-x="602" 
d="M151.5 138.5q62.5 -16.5 117.5 -16.5q60 0 95.5 19t35.5 60q0 30 -30 48t-96 41q-67 23 -110.5 44t-74.5 60.5t-31 100.5q0 59 33.5 108.5t94 78.5t137.5 29q55 0 103 -11t96 -36v-141q-92 56 -190 56q-55 0 -86.5 -21t-31.5 -55q0 -30 30 -47.5t97 -41.5
q67 -22 111 -43.5t75.5 -61t31.5 -100.5q0 -65 -38 -115t-104 -77.5t-147 -27.5q-64 0 -126.5 14t-109.5 39v146q55 -33 117.5 -49.5zM313.5 -159.5q-34.5 -55.5 -75.5 -80.5h-91q26 35 43 86t17 108h141q0 -58 -34.5 -113.5z" />
    <glyph glyph-name="T" unicode="T" horiz-adv-x="704" 
d="M678 700v-128h-248v-572h-156v572h-247v128h651z" />
    <glyph glyph-name="uni0162" unicode="&#x162;" horiz-adv-x="704" 
d="M264 -232q-28 7 -48 19v73q46 -23 98 -23q25 0 42 9t17 24q0 18 -23.5 26.5t-63.5 8.5l40 95h-52v572h-247v128h651v-128h-248v-572h-49l-20 -47q45 -6 72.5 -28t27.5 -60q0 -46 -41.5 -75t-97.5 -29q-30 0 -58 7z" />
    <glyph glyph-name="Tcaron" unicode="&#x164;" horiz-adv-x="704" 
d="M146 937h107l98 -78l97 78h108l-133 -162h-143zM678 700v-128h-248v-572h-156v572h-247v128h651z" />
    <glyph glyph-name="uni021A" unicode="&#x21a;" horiz-adv-x="704" 
d="M678 700v-128h-248v-572h-156v572h-247v128h651zM389.5 -159.5q-34.5 -55.5 -75.5 -80.5h-91q26 35 43 86t17 108h141q0 -58 -34.5 -113.5z" />
    <glyph glyph-name="U" unicode="U" horiz-adv-x="754" 
d="M212.5 26q-71.5 37 -111 108t-39.5 171v395h155v-386q0 -91 43 -137.5t117 -46.5t117 46.5t43 137.5v386h156v-395q0 -100 -40 -171t-111 -108t-165 -37q-93 0 -164.5 37z" />
    <glyph glyph-name="Ugrave" unicode="&#xd9;" horiz-adv-x="754" 
d="M127 927h215l106 -161h-120zM212.5 26q-71.5 37 -111 108t-39.5 171v395h155v-386q0 -91 43 -137.5t117 -46.5t117 46.5t43 137.5v386h156v-395q0 -100 -40 -171t-111 -108t-165 -37q-93 0 -164.5 37z" />
    <glyph glyph-name="Uacute" unicode="&#xda;" horiz-adv-x="754" 
d="M417 927h214l-200 -161h-121zM212.5 26q-71.5 37 -111 108t-39.5 171v395h155v-386q0 -91 43 -137.5t117 -46.5t117 46.5t43 137.5v386h156v-395q0 -100 -40 -171t-111 -108t-165 -37q-93 0 -164.5 37z" />
    <glyph glyph-name="Ucircumflex" unicode="&#xdb;" horiz-adv-x="754" 
d="M582 766h-108l-97 77l-98 -77h-107l134 161h143zM212.5 26q-71.5 37 -111 108t-39.5 171v395h155v-386q0 -91 43 -137.5t117 -46.5t117 46.5t43 137.5v386h156v-395q0 -100 -40 -171t-111 -108t-165 -37q-93 0 -164.5 37z" />
    <glyph glyph-name="Udieresis" unicode="&#xdc;" horiz-adv-x="754" 
d="M216 897q22 22 57 22q34 0 56 -22t22 -54t-22 -54.5t-56 -22.5q-35 0 -57 22.5t-22 54.5t22 54zM425 897q22 22 57 22q34 0 56 -22t22 -54t-22 -54.5t-56 -22.5q-35 0 -57 22.5t-22 54.5t22 54zM212.5 26q-71.5 37 -111 108t-39.5 171v395h155v-386q0 -91 43 -137.5
t117 -46.5t117 46.5t43 137.5v386h156v-395q0 -100 -40 -171t-111 -108t-165 -37q-93 0 -164.5 37z" />
    <glyph glyph-name="Utilde" unicode="&#x168;" horiz-adv-x="754" 
d="M413 770.5q-19 10.5 -47 31.5q-21 17 -36 25.5t-28 8.5q-22 0 -30 -17.5t-13 -52.5h-83q1 78 35.5 130t92.5 52q19 0 38 -10.5t47 -31.5q21 -17 36 -25.5t28 -8.5q22 0 29.5 17t12.5 54h83q-1 -79 -35 -131t-92 -52q-19 0 -38 10.5zM212.5 26q-71.5 37 -111 108
t-39.5 171v395h155v-386q0 -91 43 -137.5t117 -46.5t117 46.5t43 137.5v386h156v-395q0 -100 -40 -171t-111 -108t-165 -37q-93 0 -164.5 37z" />
    <glyph glyph-name="Umacron" unicode="&#x16a;" horiz-adv-x="754" 
d="M199 894h357v-108h-357v108zM212.5 26q-71.5 37 -111 108t-39.5 171v395h155v-386q0 -91 43 -137.5t117 -46.5t117 46.5t43 137.5v386h156v-395q0 -100 -40 -171t-111 -108t-165 -37q-93 0 -164.5 37z" />
    <glyph glyph-name="Ubreve" unicode="&#x16c;" horiz-adv-x="754" 
d="M247 800.5q-52 42.5 -52 126.5h90q2 -36 28.5 -52t63.5 -16q38 0 64.5 16t27.5 52h90q0 -84 -52 -126.5t-130 -42.5t-130 42.5zM212.5 26q-71.5 37 -111 108t-39.5 171v395h155v-386q0 -91 43 -137.5t117 -46.5t117 46.5t43 137.5v386h156v-395q0 -100 -40 -171
t-111 -108t-165 -37q-93 0 -164.5 37z" />
    <glyph glyph-name="Uring" unicode="&#x16e;" horiz-adv-x="754" 
d="M312 766q-30 18 -48.5 49t-18.5 68t18 67t48.5 47.5t65.5 17.5q36 0 67 -17.5t49 -47.5t18 -67t-18 -68t-49 -49t-67 -18q-35 0 -65 18zM420 839.5q17 17.5 17 43.5q0 25 -17 41.5t-43 16.5q-25 0 -41.5 -16.5t-16.5 -41.5q0 -26 16.5 -43.5t41.5 -17.5q26 0 43 17.5z
M212.5 26q-71.5 37 -111 108t-39.5 171v395h155v-386q0 -91 43 -137.5t117 -46.5t117 46.5t43 137.5v386h156v-395q0 -100 -40 -171t-111 -108t-165 -37q-93 0 -164.5 37z" />
    <glyph glyph-name="Uhungarumlaut" unicode="&#x170;" horiz-adv-x="754" 
d="M474 927l-155 -161h-96l94 161h157zM675 927l-155 -161h-97l95 161h157zM212.5 26q-71.5 37 -111 108t-39.5 171v395h155v-386q0 -91 43 -137.5t117 -46.5t117 46.5t43 137.5v386h156v-395q0 -100 -40 -171t-111 -108t-165 -37q-93 0 -164.5 37z" />
    <glyph glyph-name="Uogonek" unicode="&#x172;" horiz-adv-x="754" 
d="M408 -214.5q-32 24.5 -32 71.5q0 74 69 138q-31 -6 -68 -6q-93 0 -164.5 37t-111 108t-39.5 171v395h155v-386q0 -91 43 -137.5t117 -46.5t117 46.5t43 137.5v386h156v-395q0 -85 -34 -153t-87 -111q-52 -42 -75.5 -77.5t-23.5 -68.5q0 -21 11 -32.5t27 -11.5q15 0 25 6
v-88q-28 -8 -51 -8q-45 0 -77 24.5z" />
    <glyph glyph-name="V" unicode="V" horiz-adv-x="739" 
d="M11 700h166l197 -496l196 496h158l-291 -700h-135z" />
    <glyph glyph-name="W" unicode="W" horiz-adv-x="985" 
d="M690 233l138 467h146l-215 -700h-121l-145 477l-146 -477h-121l-215 700h157l138 -467l135 467h113z" />
    <glyph glyph-name="Wcircumflex" unicode="&#x174;" horiz-adv-x="985" 
d="M697 766h-108l-97 77l-98 -77h-107l134 161h143zM690 233l138 467h146l-215 -700h-121l-145 477l-146 -477h-121l-215 700h157l138 -467l135 467h113z" />
    <glyph glyph-name="Wgrave" unicode="&#x1e80;" horiz-adv-x="985" 
d="M241 927h215l106 -161h-120zM690 233l138 467h146l-215 -700h-121l-145 477l-146 -477h-121l-215 700h157l138 -467l135 467h113z" />
    <glyph glyph-name="Wacute" unicode="&#x1e82;" horiz-adv-x="985" 
d="M533 927h214l-200 -161h-121zM690 233l138 467h146l-215 -700h-121l-145 477l-146 -477h-121l-215 700h157l138 -467l135 467h113z" />
    <glyph glyph-name="Wdieresis" unicode="&#x1e84;" horiz-adv-x="985" 
d="M331 897q22 22 57 22q34 0 56 -22t22 -54t-22 -54.5t-56 -22.5q-35 0 -57 22.5t-22 54.5t22 54zM540 897q22 22 57 22q34 0 56 -22t22 -54t-22 -54.5t-56 -22.5q-35 0 -57 22.5t-22 54.5t22 54zM690 233l138 467h146l-215 -700h-121l-145 477l-146 -477h-121l-215 700
h157l138 -467l135 467h113z" />
    <glyph glyph-name="X" unicode="X" horiz-adv-x="769" 
d="M186 0h-175l283 358l-265 342h190l171 -226l174 226h176l-266 -333l284 -367h-190l-189 252z" />
    <glyph glyph-name="Y" unicode="Y" horiz-adv-x="747" 
d="M296 0v294l-285 406h183l187 -270l184 270h172l-285 -406v-294h-156z" />
    <glyph glyph-name="Yacute" unicode="&#xdd;" horiz-adv-x="747" 
d="M415 927h214l-200 -161h-121zM296 0v294l-285 406h183l187 -270l184 270h172l-285 -406v-294h-156z" />
    <glyph glyph-name="Ycircumflex" unicode="&#x176;" horiz-adv-x="747" 
d="M579 766h-108l-97 77l-98 -77h-107l134 161h143zM296 0v294l-285 406h183l187 -270l184 270h172l-285 -406v-294h-156z" />
    <glyph glyph-name="Ydieresis" unicode="&#x178;" horiz-adv-x="747" 
d="M212 897q22 22 57 22q34 0 56 -22t22 -54t-22 -54.5t-56 -22.5q-35 0 -57 22.5t-22 54.5t22 54zM421 897q22 22 57 22q34 0 56 -22t22 -54t-22 -54.5t-56 -22.5q-35 0 -57 22.5t-22 54.5t22 54zM296 0v294l-285 406h183l187 -270l184 270h172l-285 -406v-294h-156z" />
    <glyph glyph-name="Ygrave" unicode="&#x1ef2;" horiz-adv-x="747" 
d="M123 927h215l106 -161h-120zM296 0v294l-285 406h183l187 -270l184 270h172l-285 -406v-294h-156z" />
    <glyph glyph-name="Z" unicode="Z" horiz-adv-x="680" 
d="M43 0v95l379 477h-366v128h564v-105l-373 -467h392v-128h-596z" />
    <glyph glyph-name="Zacute" unicode="&#x179;" horiz-adv-x="680" 
d="M387 927h214l-200 -161h-121zM43 0v95l379 477h-366v128h564v-105l-373 -467h392v-128h-596z" />
    <glyph glyph-name="Zdotaccent" unicode="&#x17b;" horiz-adv-x="680" 
d="M283.5 911q24.5 24 62.5 24t62.5 -24t24.5 -60t-24.5 -60.5t-62.5 -24.5t-62.5 24.5t-24.5 60.5t24.5 60zM43 0v95l379 477h-366v128h564v-105l-373 -467h392v-128h-596z" />
    <glyph glyph-name="Zcaron" unicode="&#x17d;" horiz-adv-x="680" 
d="M141 937h107l98 -78l97 78h108l-133 -162h-143zM43 0v95l379 477h-366v128h564v-105l-373 -467h392v-128h-596z" />
    <glyph glyph-name="AE" unicode="&#xc6;" horiz-adv-x="1072" 
d="M281 183l-111 -183h-159l428 701h565v-128h-315v-156h289v-127h-289v-162h327v-128h-482v183h-253zM355 305h179v295z" />
    <glyph glyph-name="AEacute" unicode="&#x1fc;" horiz-adv-x="1072" 
d="M746 927h214l-200 -161h-121zM281 183l-111 -183h-159l428 701h565v-128h-315v-156h289v-127h-289v-162h327v-128h-482v183h-253zM355 305h179v295z" />
    <glyph glyph-name="Eth" unicode="&#xd0;" horiz-adv-x="766" 
d="M87 289h-75v128h75v283h275q104 0 189.5 -42.5t135 -121.5t49.5 -185q0 -107 -49.5 -186.5t-135 -122t-189.5 -42.5h-275v289zM473 155.5q49 27.5 76.5 78t27.5 117.5q0 66 -27.5 116t-76.5 77.5t-113 27.5h-117v-155h116v-128h-116v-161h117q64 0 113 27.5z" />
    <glyph glyph-name="Oslash" unicode="&#xd8;" horiz-adv-x="780" 
d="M224 28l-45 -64h-125l87 122q-52 49 -81 116.5t-29 147.5q0 105 49 187.5t131 128t179 45.5q88 0 166 -39l47 66h126l-88 -124q52 -49 80.5 -116.5t28.5 -147.5q0 -105 -49 -187.5t-131.5 -128t-179.5 -45.5q-88 0 -166 39zM225 206l251 353q-39 18 -86 18
q-60 0 -107 -29t-73.5 -80.5t-26.5 -117.5q0 -85 42 -144zM497 152q47 29 73.5 80.5t26.5 117.5q0 84 -42 143l-251 -352q39 -18 86 -18q60 0 107 29z" />
    <glyph glyph-name="Oslashacute" unicode="&#x1fe;" horiz-adv-x="780" 
d="M431 927h214l-200 -161h-121zM224 28l-45 -64h-125l87 122q-52 49 -81 116.5t-29 147.5q0 105 49 187.5t131 128t179 45.5q88 0 166 -39l47 66h126l-88 -124q52 -49 80.5 -116.5t28.5 -147.5q0 -105 -49 -187.5t-131.5 -128t-179.5 -45.5q-88 0 -166 39zM225 206l251 353
q-39 18 -86 18q-60 0 -107 -29t-73.5 -80.5t-26.5 -117.5q0 -85 42 -144zM497 152q47 29 73.5 80.5t26.5 117.5q0 84 -42 143l-251 -352q39 -18 86 -18q60 0 107 29z" />
    <glyph glyph-name="Thorn" unicode="&#xde;" horiz-adv-x="656" 
d="M78 701h156v-115h128q78 0 138 -28t93 -79.5t33 -119.5t-33 -119.5t-93 -79.5t-138 -28h-128v-132h-156v701zM435 432.5q-31 25.5 -85 25.5h-116v-198h116q54 0 85 25.5t31 73.5t-31 73.5z" />
    <glyph glyph-name="Dcroat" unicode="&#x110;" horiz-adv-x="766" 
d="M87 289h-75v128h75v283h275q104 0 189.5 -42.5t135 -121.5t49.5 -185q0 -107 -49.5 -186.5t-135 -122t-189.5 -42.5h-275v289zM473 155.5q49 27.5 76.5 78t27.5 117.5q0 66 -27.5 116t-76.5 77.5t-113 27.5h-117v-155h116v-128h-116v-161h117q64 0 113 27.5z" />
    <glyph glyph-name="Hbar" unicode="&#x126;" horiz-adv-x="802" 
d="M87 0v448h-75v121h75v132h156v-132h316v132h155v-132h76v-121h-76v-448h-155v209h-316v-209h-156zM559 448h-316v-118h316v118z" />
    <glyph glyph-name="Ldot" unicode="&#x13f;" horiz-adv-x="599" 
d="M234 128h326v-128h-482v700h156v-572zM384.5 463.5q24.5 24.5 62.5 24.5t62.5 -24.5t24.5 -60.5t-24.5 -60t-62.5 -24t-62.5 24t-24.5 60t24.5 60.5z" />
    <glyph glyph-name="Lslash" unicode="&#x141;" horiz-adv-x="608" 
d="M87 253l-75 -36v129l75 36v318h156v-252l160 76v-129l-160 -76v-191h326v-128h-482v253z" />
    <glyph glyph-name="Eng" unicode="&#x14a;" horiz-adv-x="777" 
d="M526 -116q21 59 24 138l-324 452v-474h-148v700h150l322 -466v466h149v-672q-1 -84 -21.5 -145t-56.5 -111h-150q34 53 55 112z" />
    <glyph glyph-name="OE" unicode="&#x152;" horiz-adv-x="1060" 
d="M216 43q-85 43 -135 122.5t-50 185.5t50 185.5t135 122t189 42.5h587v-128h-315v-156h289v-127h-289v-162h327v-128h-599q-104 0 -189 43zM293.5 545q-49.5 -28 -77 -78t-27.5 -116q0 -67 27.5 -117.5t76.5 -78t113 -27.5h118v445h-118q-63 0 -112.5 -28z" />
    <glyph glyph-name="Tbar" unicode="&#x166;" horiz-adv-x="704" 
d="M430 0h-156v289h-123v128h123v155h-247v128h651v-128h-248v-155h123v-128h-123v-289z" />
    <glyph glyph-name="a" unicode="a" horiz-adv-x="546" 
d="M338 52q-65 -63 -148 -63q-67 0 -109.5 39.5t-42.5 102.5q0 83 76.5 129t222.5 49v18q0 38 -23 58t-69 20q-43 0 -89 -13.5t-88 -38.5v120q39 24 92.5 39t106.5 15q107 0 162.5 -53.5t55.5 -145.5v-218q0 -37 2.5 -61.5t8.5 -48.5h-148zM291 102q23 8 46 25v96
q-79 -3 -119.5 -21.5t-40.5 -56.5q0 -24 17.5 -37.5t45.5 -13.5t51 8z" />
    <glyph glyph-name="agrave" unicode="&#xe0;" horiz-adv-x="546" 
d="M96 790h176l63 -194h-96zM338 52q-65 -63 -148 -63q-67 0 -109.5 39.5t-42.5 102.5q0 83 76.5 129t222.5 49v18q0 38 -23 58t-69 20q-43 0 -89 -13.5t-88 -38.5v120q39 24 92.5 39t106.5 15q107 0 162.5 -53.5t55.5 -145.5v-218q0 -37 2.5 -61.5t8.5 -48.5h-148zM291 102
q23 8 46 25v96q-79 -3 -119.5 -21.5t-40.5 -56.5q0 -24 17.5 -37.5t45.5 -13.5t51 8z" />
    <glyph glyph-name="aacute" unicode="&#xe1;" horiz-adv-x="546" 
d="M279 790h175l-144 -194h-95zM338 52q-65 -63 -148 -63q-67 0 -109.5 39.5t-42.5 102.5q0 83 76.5 129t222.5 49v18q0 38 -23 58t-69 20q-43 0 -89 -13.5t-88 -38.5v120q39 24 92.5 39t106.5 15q107 0 162.5 -53.5t55.5 -145.5v-218q0 -37 2.5 -61.5t8.5 -48.5h-148z
M291 102q23 8 46 25v96q-79 -3 -119.5 -21.5t-40.5 -56.5q0 -24 17.5 -37.5t45.5 -13.5t51 8z" />
    <glyph glyph-name="acircumflex" unicode="&#xe2;" horiz-adv-x="546" 
d="M449 596h-94l-79 103l-79 -103h-94l102 194h143zM338 52q-65 -63 -148 -63q-67 0 -109.5 39.5t-42.5 102.5q0 83 76.5 129t222.5 49v18q0 38 -23 58t-69 20q-43 0 -89 -13.5t-88 -38.5v120q39 24 92.5 39t106.5 15q107 0 162.5 -53.5t55.5 -145.5v-218q0 -37 2.5 -61.5
t8.5 -48.5h-148zM291 102q23 8 46 25v96q-79 -3 -119.5 -21.5t-40.5 -56.5q0 -24 17.5 -37.5t45.5 -13.5t51 8z" />
    <glyph glyph-name="atilde" unicode="&#xe3;" horiz-adv-x="546" 
d="M305.5 618.5q-17.5 10.5 -41.5 30.5q-20 17 -33 25.5t-26 8.5q-21 0 -29 -17.5t-12 -52.5h-81q1 78 34.5 130t89.5 52q19 0 36 -10.5t41 -30.5q20 -17 33 -25.5t26 -8.5q22 0 29.5 17t11.5 53h81q-1 -79 -34 -130.5t-89 -51.5q-19 0 -36.5 10.5zM338 52q-65 -63 -148 -63
q-67 0 -109.5 39.5t-42.5 102.5q0 83 76.5 129t222.5 49v18q0 38 -23 58t-69 20q-43 0 -89 -13.5t-88 -38.5v120q39 24 92.5 39t106.5 15q107 0 162.5 -53.5t55.5 -145.5v-218q0 -37 2.5 -61.5t8.5 -48.5h-148zM291 102q23 8 46 25v96q-79 -3 -119.5 -21.5t-40.5 -56.5
q0 -24 17.5 -37.5t45.5 -13.5t51 8z" />
    <glyph glyph-name="adieresis" unicode="&#xe4;" horiz-adv-x="546" 
d="M115.5 753q22.5 22 56.5 22t56 -22.5t22 -53.5q0 -33 -22 -54.5t-56 -21.5q-35 0 -57 21.5t-22 54.5q0 32 22.5 54zM324.5 753q22.5 22 56.5 22t56 -22.5t22 -53.5q0 -33 -22 -54.5t-56 -21.5q-35 0 -57 21.5t-22 54.5q0 32 22.5 54zM338 52q-65 -63 -148 -63
q-67 0 -109.5 39.5t-42.5 102.5q0 83 76.5 129t222.5 49v18q0 38 -23 58t-69 20q-43 0 -89 -13.5t-88 -38.5v120q39 24 92.5 39t106.5 15q107 0 162.5 -53.5t55.5 -145.5v-218q0 -37 2.5 -61.5t8.5 -48.5h-148zM291 102q23 8 46 25v96q-79 -3 -119.5 -21.5t-40.5 -56.5
q0 -24 17.5 -37.5t45.5 -13.5t51 8z" />
    <glyph glyph-name="aring" unicode="&#xe5;" horiz-adv-x="546" 
d="M359 618q-35 -35 -84 -35q-31 0 -58 16t-43 43.5t-16 59.5q0 49 34.5 83t82.5 34q49 0 84 -34t35 -83t-35 -84zM237.5 663q15.5 -16 37.5 -16t38 16t16 39q0 22 -15.5 37.5t-38.5 15.5q-21 0 -37 -15.5t-16 -37.5q0 -23 15.5 -39zM338 52q-65 -63 -148 -63
q-67 0 -109.5 39.5t-42.5 102.5q0 83 76.5 129t222.5 49v18q0 38 -23 58t-69 20q-43 0 -89 -13.5t-88 -38.5v120q39 24 92.5 39t106.5 15q107 0 162.5 -53.5t55.5 -145.5v-218q0 -37 2.5 -61.5t8.5 -48.5h-148zM291 102q23 8 46 25v96q-79 -3 -119.5 -21.5t-40.5 -56.5
q0 -24 17.5 -37.5t45.5 -13.5t51 8z" />
    <glyph glyph-name="amacron" unicode="&#x101;" horiz-adv-x="546" 
d="M109 747h334v-107h-334v107zM338 52q-65 -63 -148 -63q-67 0 -109.5 39.5t-42.5 102.5q0 83 76.5 129t222.5 49v18q0 38 -23 58t-69 20q-43 0 -89 -13.5t-88 -38.5v120q39 24 92.5 39t106.5 15q107 0 162.5 -53.5t55.5 -145.5v-218q0 -37 2.5 -61.5t8.5 -48.5h-148z
M291 102q23 8 46 25v96q-79 -3 -119.5 -21.5t-40.5 -56.5q0 -24 17.5 -37.5t45.5 -13.5t51 8z" />
    <glyph glyph-name="abreve" unicode="&#x103;" horiz-adv-x="546" 
d="M190.5 620q-37.5 24 -58.5 68t-21 102h90q2 -44 22.5 -67.5t52.5 -23.5q33 0 53.5 23.5t21.5 67.5h90q0 -58 -21 -102t-58.5 -68t-85.5 -24t-85.5 24zM338 52q-65 -63 -148 -63q-67 0 -109.5 39.5t-42.5 102.5q0 83 76.5 129t222.5 49v18q0 38 -23 58t-69 20
q-43 0 -89 -13.5t-88 -38.5v120q39 24 92.5 39t106.5 15q107 0 162.5 -53.5t55.5 -145.5v-218q0 -37 2.5 -61.5t8.5 -48.5h-148zM291 102q23 8 46 25v96q-79 -3 -119.5 -21.5t-40.5 -56.5q0 -24 17.5 -37.5t45.5 -13.5t51 8z" />
    <glyph glyph-name="aogonek" unicode="&#x105;" horiz-adv-x="546" 
d="M380 -239q-45 0 -77.5 24.5t-32.5 71.5q0 80 78 144l-10 51q-65 -63 -148 -63q-67 0 -109.5 39.5t-42.5 102.5q0 83 76.5 129t222.5 49v18q0 38 -23 58t-69 20q-43 0 -89 -13.5t-88 -38.5v120q39 24 92.5 39t106.5 15q107 0 162.5 -53.5t55.5 -145.5v-218
q0 -37 2.5 -61.5t8.5 -48.5h-63q-31 -28 -48 -56t-17 -53q0 -19 11 -29.5t27 -10.5q15 0 25 6v-88q-30 -8 -51 -8zM291 102q23 8 46 25v96q-79 -3 -119.5 -21.5t-40.5 -56.5q0 -24 17.5 -37.5t45.5 -13.5t51 8z" />
    <glyph glyph-name="b" unicode="b" horiz-adv-x="613" 
d="M217 802v-332q25 24 63.5 40.5t83.5 16.5q66 0 116.5 -31.5t78 -88.5t27.5 -132q0 -84 -37.5 -149t-103.5 -101t-149 -36q-124 0 -228 49v745zM294 108q63 0 101 43t38 116q0 61 -31 97.5t-86 36.5q-28 0 -55 -9t-44 -22v-248q34 -14 77 -14z" />
    <glyph glyph-name="c" unicode="c" horiz-adv-x="462" 
d="M68 400q38 61 103 94t144 33q55 0 104 -18v-127q-25 9 -46.5 13t-49.5 4q-40 0 -73.5 -17t-54 -49t-20.5 -75t20.5 -75t54 -49t73.5 -17q27 0 48.5 4.5t48.5 13.5v-127q-51 -19 -105 -19q-79 0 -144 33t-103 94t-38 142t38 142z" />
    <glyph glyph-name="ccedilla" unicode="&#xe7;" horiz-adv-x="462" 
d="M173 -232q-28 7 -48 19v73q46 -23 98 -23q25 0 42 9t17 24q0 18 -23.5 26.5t-63.5 8.5l39 94q-91 22 -147.5 91t-56.5 168q0 81 38 142t103 94t144 33q55 0 104 -18v-127q-25 9 -46.5 13t-49.5 4q-40 0 -73.5 -17t-54 -49t-20.5 -75t20.5 -75t54 -49t73.5 -17
q27 0 48.5 4.5t48.5 13.5v-127q-51 -19 -105 -19q-20 0 -29 1l-16 -37q45 -6 72.5 -28t27.5 -60q0 -46 -41.5 -75t-97.5 -29q-30 0 -58 7z" />
    <glyph glyph-name="cacute" unicode="&#x107;" horiz-adv-x="462" 
d="M297 790h175l-144 -194h-95zM68 400q38 61 103 94t144 33q55 0 104 -18v-127q-25 9 -46.5 13t-49.5 4q-40 0 -73.5 -17t-54 -49t-20.5 -75t20.5 -75t54 -49t73.5 -17q27 0 48.5 4.5t48.5 13.5v-127q-51 -19 -105 -19q-79 0 -144 33t-103 94t-38 142t38 142z" />
    <glyph glyph-name="ccircumflex" unicode="&#x109;" horiz-adv-x="462" 
d="M461 596h-94l-79 103l-79 -103h-94l102 194h143zM68 400q38 61 103 94t144 33q55 0 104 -18v-127q-25 9 -46.5 13t-49.5 4q-40 0 -73.5 -17t-54 -49t-20.5 -75t20.5 -75t54 -49t73.5 -17q27 0 48.5 4.5t48.5 13.5v-127q-51 -19 -105 -19q-79 0 -144 33t-103 94t-38 142
t38 142z" />
    <glyph glyph-name="cdotaccent" unicode="&#x10b;" horiz-adv-x="462" 
d="M225.5 757.5q24.5 24.5 62.5 24.5t62.5 -24.5t24.5 -60.5t-24.5 -60t-62.5 -24t-62.5 24t-24.5 60t24.5 60.5zM68 400q38 61 103 94t144 33q55 0 104 -18v-127q-25 9 -46.5 13t-49.5 4q-40 0 -73.5 -17t-54 -49t-20.5 -75t20.5 -75t54 -49t73.5 -17q27 0 48.5 4.5
t48.5 13.5v-127q-51 -19 -105 -19q-79 0 -144 33t-103 94t-38 142t38 142z" />
    <glyph glyph-name="ccaron" unicode="&#x10d;" horiz-adv-x="462" 
d="M115 790h94l79 -103l79 103h94l-101 -194h-143zM68 400q38 61 103 94t144 33q55 0 104 -18v-127q-25 9 -46.5 13t-49.5 4q-40 0 -73.5 -17t-54 -49t-20.5 -75t20.5 -75t54 -49t73.5 -17q27 0 48.5 4.5t48.5 13.5v-127q-51 -19 -105 -19q-79 0 -144 33t-103 94t-38 142
t38 142z" />
    <glyph glyph-name="d" unicode="d" horiz-adv-x="616" 
d="M255 -11q-66 0 -117 32t-79.5 89.5t-28.5 132.5q0 83 36.5 148t99 100.5t137.5 35.5q54 0 96 -21v277l149 19v-790l-149 -21v56q-62 -58 -144 -58zM320 409q-63 0 -100 -42.5t-37 -115.5q0 -61 31.5 -98.5t85.5 -37.5q30 0 55.5 9t43.5 24v241q-30 20 -79 20z" />
    <glyph glyph-name="dcaron" unicode="&#x10f;" horiz-adv-x="776" 
d="M255 -11q-66 0 -117 32t-79.5 89.5t-28.5 132.5q0 83 36.5 148t99 100.5t137.5 35.5q54 0 96 -21v277l149 19v-790l-149 -21v56q-62 -58 -144 -58zM801 790l-100 -243h-86l31 243h155zM320 409q-63 0 -100 -42.5t-37 -115.5q0 -61 31.5 -98.5t85.5 -37.5q30 0 55.5 9
t43.5 24v241q-30 20 -79 20z" />
    <glyph glyph-name="e" unicode="e" horiz-adv-x="548" 
d="M324 -11q-86 0 -153 34t-104 95t-37 140q0 76 33.5 137.5t92.5 96.5t133 35q76 0 128 -34.5t77 -93t25 -131.5q0 -28 -2 -42h-344q13 -57 60.5 -86.5t113.5 -29.5q37 0 71 6.5t73 24.5v-116q-72 -36 -167 -36zM212 387q-30 -27 -40 -76h204v4q0 42 -23.5 70.5t-68.5 28.5
q-42 0 -72 -27z" />
    <glyph glyph-name="egrave" unicode="&#xe8;" horiz-adv-x="548" 
d="M112 790h176l63 -194h-96zM324 -11q-86 0 -153 34t-104 95t-37 140q0 76 33.5 137.5t92.5 96.5t133 35q76 0 128 -34.5t77 -93t25 -131.5q0 -28 -2 -42h-344q13 -57 60.5 -86.5t113.5 -29.5q37 0 71 6.5t73 24.5v-116q-72 -36 -167 -36zM212 387q-30 -27 -40 -76h204v4
q0 42 -23.5 70.5t-68.5 28.5q-42 0 -72 -27z" />
    <glyph glyph-name="eacute" unicode="&#xe9;" horiz-adv-x="548" 
d="M295 790h175l-144 -194h-95zM324 -11q-86 0 -153 34t-104 95t-37 140q0 76 33.5 137.5t92.5 96.5t133 35q76 0 128 -34.5t77 -93t25 -131.5q0 -28 -2 -42h-344q13 -57 60.5 -86.5t113.5 -29.5q37 0 71 6.5t73 24.5v-116q-72 -36 -167 -36zM212 387q-30 -27 -40 -76h204v4
q0 42 -23.5 70.5t-68.5 28.5q-42 0 -72 -27z" />
    <glyph glyph-name="ecircumflex" unicode="&#xea;" horiz-adv-x="548" 
d="M464 596h-94l-79 103l-79 -103h-94l102 194h143zM324 -11q-86 0 -153 34t-104 95t-37 140q0 76 33.5 137.5t92.5 96.5t133 35q76 0 128 -34.5t77 -93t25 -131.5q0 -28 -2 -42h-344q13 -57 60.5 -86.5t113.5 -29.5q37 0 71 6.5t73 24.5v-116q-72 -36 -167 -36zM212 387
q-30 -27 -40 -76h204v4q0 42 -23.5 70.5t-68.5 28.5q-42 0 -72 -27z" />
    <glyph glyph-name="edieresis" unicode="&#xeb;" horiz-adv-x="548" 
d="M130.5 753q22.5 22 56.5 22t56 -22.5t22 -53.5q0 -33 -22 -54.5t-56 -21.5q-35 0 -57 21.5t-22 54.5q0 32 22.5 54zM339.5 753q22.5 22 56.5 22t56 -22.5t22 -53.5q0 -33 -22 -54.5t-56 -21.5q-35 0 -57 21.5t-22 54.5q0 32 22.5 54zM324 -11q-86 0 -153 34t-104 95
t-37 140q0 76 33.5 137.5t92.5 96.5t133 35q76 0 128 -34.5t77 -93t25 -131.5q0 -28 -2 -42h-344q13 -57 60.5 -86.5t113.5 -29.5q37 0 71 6.5t73 24.5v-116q-72 -36 -167 -36zM212 387q-30 -27 -40 -76h204v4q0 42 -23.5 70.5t-68.5 28.5q-42 0 -72 -27z" />
    <glyph glyph-name="emacron" unicode="&#x113;" horiz-adv-x="548" 
d="M124 747h334v-107h-334v107zM324 -11q-86 0 -153 34t-104 95t-37 140q0 76 33.5 137.5t92.5 96.5t133 35q76 0 128 -34.5t77 -93t25 -131.5q0 -28 -2 -42h-344q13 -57 60.5 -86.5t113.5 -29.5q37 0 71 6.5t73 24.5v-116q-72 -36 -167 -36zM212 387q-30 -27 -40 -76h204v4
q0 42 -23.5 70.5t-68.5 28.5q-42 0 -72 -27z" />
    <glyph glyph-name="ebreve" unicode="&#x115;" horiz-adv-x="548" 
d="M205.5 620q-37.5 24 -58.5 68t-21 102h90q2 -44 22.5 -67.5t52.5 -23.5q33 0 53.5 23.5t21.5 67.5h90q0 -58 -21 -102t-58.5 -68t-85.5 -24t-85.5 24zM324 -11q-86 0 -153 34t-104 95t-37 140q0 76 33.5 137.5t92.5 96.5t133 35q76 0 128 -34.5t77 -93t25 -131.5
q0 -28 -2 -42h-344q13 -57 60.5 -86.5t113.5 -29.5q37 0 71 6.5t73 24.5v-116q-72 -36 -167 -36zM212 387q-30 -27 -40 -76h204v4q0 42 -23.5 70.5t-68.5 28.5q-42 0 -72 -27z" />
    <glyph glyph-name="edotaccent" unicode="&#x117;" horiz-adv-x="548" 
d="M228.5 757.5q24.5 24.5 62.5 24.5t62.5 -24.5t24.5 -60.5t-24.5 -60t-62.5 -24t-62.5 24t-24.5 60t24.5 60.5zM324 -11q-86 0 -153 34t-104 95t-37 140q0 76 33.5 137.5t92.5 96.5t133 35q76 0 128 -34.5t77 -93t25 -131.5q0 -28 -2 -42h-344q13 -57 60.5 -86.5
t113.5 -29.5q37 0 71 6.5t73 24.5v-116q-72 -36 -167 -36zM212 387q-30 -27 -40 -76h204v4q0 42 -23.5 70.5t-68.5 28.5q-42 0 -72 -27z" />
    <glyph glyph-name="eogonek" unicode="&#x119;" horiz-adv-x="548" 
d="M393 -239q-44 0 -76.5 24.5t-32.5 71.5q0 71 65 133q-9 -1 -25 -1q-86 0 -153 34t-104 95t-37 140q0 76 33.5 137.5t92.5 96.5t133 35q76 0 128 -34.5t77 -93t25 -131.5q0 -28 -2 -42h-344q13 -57 60.5 -86.5t113.5 -29.5q37 0 71 6.5t73 24.5v-116q-56 -31 -83 -67
t-27 -67q0 -19 11 -29.5t27 -10.5q15 0 26 6v-88q-30 -8 -52 -8zM212 387q-30 -27 -40 -76h204v4q0 42 -23.5 70.5t-68.5 28.5q-42 0 -72 -27z" />
    <glyph glyph-name="ecaron" unicode="&#x11b;" horiz-adv-x="548" 
d="M118 790h94l79 -103l79 103h94l-101 -194h-143zM324 -11q-86 0 -153 34t-104 95t-37 140q0 76 33.5 137.5t92.5 96.5t133 35q76 0 128 -34.5t77 -93t25 -131.5q0 -28 -2 -42h-344q13 -57 60.5 -86.5t113.5 -29.5q37 0 71 6.5t73 24.5v-116q-72 -36 -167 -36zM212 387
q-30 -27 -40 -76h204v4q0 42 -23.5 70.5t-68.5 28.5q-42 0 -72 -27z" />
    <glyph glyph-name="f" unicode="f" horiz-adv-x="380" 
d="M90 0v404h-69v112h69v29q0 76 30.5 134.5t88 90.5t135.5 32q46 0 89 -14v-117q-35 9 -67 9q-61 0 -93.5 -34t-32.5 -97v-33h149l-18 -112h-131v-404h-150z" />
    <glyph glyph-name="g" unicode="g" horiz-adv-x="558" 
d="M506 -151.5q-42 -43.5 -112.5 -65.5t-154.5 -22q-69 0 -127 17.5t-92.5 51.5t-34.5 81q0 46 38 79t87 44q-20 28 -20 59q0 29 18 53.5t51 40.5q-61 19 -96.5 62t-35.5 101q0 53 30 93.5t82 62t116 21.5q40 0 78 -11h223l-12 -95h-87q18 -33 18 -71q0 -81 -60.5 -129.5
t-159.5 -48.5h-11q-32 -16 -32 -33q0 -19 36 -24l125 -19q86 -13 130.5 -47t44.5 -95q0 -62 -42 -105.5zM316.5 409.5q-24.5 21.5 -61.5 21.5q-36 0 -61 -21.5t-25 -59.5q0 -37 25 -59t61 -22q37 0 61.5 22t24.5 59q0 38 -24.5 59.5zM358.5 -118.5q42.5 16.5 42.5 46.5
q0 19 -15 28t-40 12l-166 26q-27 -10 -41.5 -26t-14.5 -36q0 -32 37 -49.5t99 -17.5q56 0 98.5 16.5z" />
    <glyph glyph-name="gcircumflex" unicode="&#x11d;" horiz-adv-x="558" 
d="M444 596h-94l-79 103l-79 -103h-94l102 194h143zM506 -151.5q-42 -43.5 -112.5 -65.5t-154.5 -22q-69 0 -127 17.5t-92.5 51.5t-34.5 81q0 46 38 79t87 44q-20 28 -20 59q0 29 18 53.5t51 40.5q-61 19 -96.5 62t-35.5 101q0 53 30 93.5t82 62t116 21.5q40 0 78 -11h223
l-12 -95h-87q18 -33 18 -71q0 -81 -60.5 -129.5t-159.5 -48.5h-11q-32 -16 -32 -33q0 -19 36 -24l125 -19q86 -13 130.5 -47t44.5 -95q0 -62 -42 -105.5zM316.5 409.5q-24.5 21.5 -61.5 21.5q-36 0 -61 -21.5t-25 -59.5q0 -37 25 -59t61 -22q37 0 61.5 22t24.5 59
q0 38 -24.5 59.5zM358.5 -118.5q42.5 16.5 42.5 46.5q0 19 -15 28t-40 12l-166 26q-27 -10 -41.5 -26t-14.5 -36q0 -32 37 -49.5t99 -17.5q56 0 98.5 16.5z" />
    <glyph glyph-name="gbreve" unicode="&#x11f;" horiz-adv-x="558" 
d="M184.5 620q-37.5 24 -58.5 68t-21 102h90q2 -44 22.5 -67.5t52.5 -23.5q33 0 53.5 23.5t21.5 67.5h90q0 -58 -21 -102t-58.5 -68t-85.5 -24t-85.5 24zM506 -151.5q-42 -43.5 -112.5 -65.5t-154.5 -22q-69 0 -127 17.5t-92.5 51.5t-34.5 81q0 46 38 79t87 44
q-20 28 -20 59q0 29 18 53.5t51 40.5q-61 19 -96.5 62t-35.5 101q0 53 30 93.5t82 62t116 21.5q40 0 78 -11h223l-12 -95h-87q18 -33 18 -71q0 -81 -60.5 -129.5t-159.5 -48.5h-11q-32 -16 -32 -33q0 -19 36 -24l125 -19q86 -13 130.5 -47t44.5 -95q0 -62 -42 -105.5z
M316.5 409.5q-24.5 21.5 -61.5 21.5q-36 0 -61 -21.5t-25 -59.5q0 -37 25 -59t61 -22q37 0 61.5 22t24.5 59q0 38 -24.5 59.5zM358.5 -118.5q42.5 16.5 42.5 46.5q0 19 -15 28t-40 12l-166 26q-27 -10 -41.5 -26t-14.5 -36q0 -32 37 -49.5t99 -17.5q56 0 98.5 16.5z" />
    <glyph glyph-name="gdotaccent" unicode="&#x121;" horiz-adv-x="558" 
d="M207.5 757.5q24.5 24.5 62.5 24.5t62.5 -24.5t24.5 -60.5t-24.5 -60t-62.5 -24t-62.5 24t-24.5 60t24.5 60.5zM506 -151.5q-42 -43.5 -112.5 -65.5t-154.5 -22q-69 0 -127 17.5t-92.5 51.5t-34.5 81q0 46 38 79t87 44q-20 28 -20 59q0 29 18 53.5t51 40.5
q-61 19 -96.5 62t-35.5 101q0 53 30 93.5t82 62t116 21.5q40 0 78 -11h223l-12 -95h-87q18 -33 18 -71q0 -81 -60.5 -129.5t-159.5 -48.5h-11q-32 -16 -32 -33q0 -19 36 -24l125 -19q86 -13 130.5 -47t44.5 -95q0 -62 -42 -105.5zM316.5 409.5q-24.5 21.5 -61.5 21.5
q-36 0 -61 -21.5t-25 -59.5q0 -37 25 -59t61 -22q37 0 61.5 22t24.5 59q0 38 -24.5 59.5zM358.5 -118.5q42.5 16.5 42.5 46.5q0 19 -15 28t-40 12l-166 26q-27 -10 -41.5 -26t-14.5 -36q0 -32 37 -49.5t99 -17.5q56 0 98.5 16.5z" />
    <glyph glyph-name="uni0123" unicode="&#x123;" horiz-adv-x="558" 
d="M234 710.5q34 55.5 75 79.5h90q-25 -34 -42 -85.5t-17 -108.5h-140q0 59 34 114.5zM506 -151.5q-42 -43.5 -112.5 -65.5t-154.5 -22q-69 0 -127 17.5t-92.5 51.5t-34.5 81q0 46 38 79t87 44q-20 28 -20 59q0 29 18 53.5t51 40.5q-61 19 -96.5 62t-35.5 101q0 53 30 93.5
t82 62t116 21.5q40 0 78 -11h223l-12 -95h-87q18 -33 18 -71q0 -81 -60.5 -129.5t-159.5 -48.5h-11q-32 -16 -32 -33q0 -19 36 -24l125 -19q86 -13 130.5 -47t44.5 -95q0 -62 -42 -105.5zM316.5 409.5q-24.5 21.5 -61.5 21.5q-36 0 -61 -21.5t-25 -59.5q0 -37 25 -59t61 -22
q37 0 61.5 22t24.5 59q0 38 -24.5 59.5zM358.5 -118.5q42.5 16.5 42.5 46.5q0 19 -15 28t-40 12l-166 26q-27 -10 -41.5 -26t-14.5 -36q0 -32 37 -49.5t99 -17.5q56 0 98.5 16.5z" />
    <glyph glyph-name="h" unicode="h" horiz-adv-x="619" 
d="M217 470q31 24 73.5 40.5t92.5 16.5q81 0 127.5 -49t46.5 -130v-348h-149v311q0 88 -86 88q-55 0 -105 -29v-370h-149v783l149 19v-332z" />
    <glyph glyph-name="hcircumflex" unicode="&#x125;" horiz-adv-x="619" 
d="M524 834h-108l-97 77l-98 -77h-107l134 161h143zM217 470q31 24 73.5 40.5t92.5 16.5q81 0 127.5 -49t46.5 -130v-348h-149v311q0 88 -86 88q-55 0 -105 -29v-370h-149v783l149 19v-332z" />
    <glyph glyph-name="i" unicode="i" 
d="M80 757.5q24 24.5 62 24.5t62.5 -24.5t24.5 -60.5t-24.5 -60t-62.5 -24t-62 24t-24 60t24 60.5zM217 525v-525h-149v504z" />
    <glyph glyph-name="igrave" unicode="&#xec;" 
d="M-42 790h176l63 -194h-96zM217 525v-525h-149v504z" />
    <glyph glyph-name="iacute" unicode="&#xed;" 
d="M150 790h175l-144 -194h-95zM217 525v-525h-149v504z" />
    <glyph glyph-name="icircumflex" unicode="&#xee;" 
d="M315 596h-94l-79 103l-79 -103h-94l102 194h143zM217 525v-525h-149v504z" />
    <glyph glyph-name="idieresis" unicode="&#xef;" 
d="M-18.5 753q22.5 22 56.5 22t56 -22.5t22 -53.5q0 -33 -22 -54.5t-56 -21.5q-35 0 -57 21.5t-22 54.5q0 32 22.5 54zM190.5 753q22.5 22 56.5 22t56 -22.5t22 -53.5q0 -33 -22 -54.5t-56 -21.5q-35 0 -57 21.5t-22 54.5q0 32 22.5 54zM217 525v-525h-149v504z" />
    <glyph glyph-name="itilde" unicode="&#x129;" 
d="M173.5 618.5q-17.5 10.5 -41.5 30.5q-20 17 -33 25.5t-26 8.5q-21 0 -29 -17.5t-12 -52.5h-81q1 78 34.5 130t89.5 52q19 0 36 -10.5t41 -30.5q20 -17 33 -25.5t26 -8.5q22 0 29.5 17t11.5 53h81q-1 -79 -34 -130.5t-89 -51.5q-19 0 -36.5 10.5zM217 525v-525h-149v504z
" />
    <glyph glyph-name="imacron" unicode="&#x12b;" 
d="M-25 747h334v-107h-334v107zM217 525v-525h-149v504z" />
    <glyph glyph-name="ibreve" unicode="&#x12d;" 
d="M56.5 620q-37.5 24 -58.5 68t-21 102h90q2 -44 22.5 -67.5t52.5 -23.5q33 0 53.5 23.5t21.5 67.5h90q0 -58 -21 -102t-58.5 -68t-85.5 -24t-85.5 24zM217 525v-525h-149v504z" />
    <glyph glyph-name="iogonek" unicode="&#x12f;" 
d="M80 757.5q24 24.5 62 24.5t62.5 -24.5t24.5 -60.5t-24.5 -60t-62.5 -24t-62 24t-24 60t24 60.5zM217 525v-525q-35 -26 -53.5 -54t-18.5 -55q0 -19 11 -29.5t27 -10.5q15 0 25 6v-88q-30 -8 -51 -8q-45 0 -77.5 24.5t-32.5 71.5q0 78 76 143h-55v504z" />
    <glyph glyph-name="j" unicode="j" 
d="M80 757.5q24 24.5 62 24.5t62.5 -24.5t24.5 -60.5t-24.5 -60t-62.5 -24t-62 24t-24 60t24 60.5zM196 -117q-20 -61 -56 -111h-152q37 58 58 121.5t22 151.5v459l149 21v-497q-1 -84 -21 -145z" />
    <glyph glyph-name="jcircumflex" unicode="&#x135;" 
d="M314 596h-94l-79 103l-79 -103h-94l102 194h143zM196 -117q-20 -61 -56 -111h-152q37 58 58 121.5t22 151.5v459l149 21v-497q-1 -84 -21 -145z" />
    <glyph glyph-name="k" unicode="k" horiz-adv-x="602" 
d="M217 0h-149v783l149 19v-515l197 229h170l-206 -235l232 -281h-177l-216 259v-259z" />
    <glyph glyph-name="uni0137" unicode="&#x137;" horiz-adv-x="602" 
d="M217 0h-149v783l149 19v-515l197 229h170l-206 -235l232 -281h-177l-216 259v-259zM351.5 -159.5q-34.5 -55.5 -75.5 -80.5h-91q26 35 43 86t17 108h141q0 -58 -34.5 -113.5z" />
    <glyph glyph-name="l" unicode="l" 
d="M217 802v-802h-149v783z" />
    <glyph glyph-name="lacute" unicode="&#x13a;" 
d="M189 995h214l-200 -161h-121zM217 802v-802h-149v783z" />
    <glyph glyph-name="uni013C" unicode="&#x13c;" 
d="M217 802v-802h-149v783zM179.5 -159.5q-34.5 -55.5 -75.5 -80.5h-91q26 35 43 86t17 108h141q0 -58 -34.5 -113.5z" />
    <glyph glyph-name="lcaron" unicode="&#x13e;" horiz-adv-x="444" 
d="M217 802v-802h-149v783zM469 790l-100 -243h-86l31 243h155z" />
    <glyph glyph-name="m" unicode="m" horiz-adv-x="932" 
d="M68 504l149 21v-55q29 23 70.5 40t88.5 17q46 0 81 -17.5t57 -50.5q86 68 188 68q78 0 123.5 -49.5t45.5 -129.5v-348h-150v311q0 88 -80 88q-51 0 -98 -29q1 -7 1 -22v-348h-150v311q0 88 -80 88q-52 0 -97 -29v-370h-149v504z" />
    <glyph glyph-name="n" unicode="n" horiz-adv-x="619" 
d="M217 470q31 24 73.5 40.5t92.5 16.5q81 0 127.5 -49t46.5 -130v-348h-149v311q0 88 -86 88q-55 0 -105 -29v-370h-149v504l149 21v-55z" />
    <glyph glyph-name="ntilde" unicode="&#xf1;" horiz-adv-x="619" 
d="M345.5 618.5q-17.5 10.5 -41.5 30.5q-20 17 -33 25.5t-26 8.5q-21 0 -29 -17.5t-12 -52.5h-81q1 78 34.5 130t89.5 52q19 0 36 -10.5t41 -30.5q20 -17 33 -25.5t26 -8.5q22 0 29.5 17t11.5 53h81q-1 -79 -34 -130.5t-89 -51.5q-19 0 -36.5 10.5zM217 470q31 24 73.5 40.5
t92.5 16.5q81 0 127.5 -49t46.5 -130v-348h-149v311q0 88 -86 88q-55 0 -105 -29v-370h-149v504l149 21v-55z" />
    <glyph glyph-name="nacute" unicode="&#x144;" horiz-adv-x="619" 
d="M323 790h175l-144 -194h-95zM217 470q31 24 73.5 40.5t92.5 16.5q81 0 127.5 -49t46.5 -130v-348h-149v311q0 88 -86 88q-55 0 -105 -29v-370h-149v504l149 21v-55z" />
    <glyph glyph-name="uni0146" unicode="&#x146;" horiz-adv-x="619" 
d="M217 470q31 24 73.5 40.5t92.5 16.5q81 0 127.5 -49t46.5 -130v-348h-149v311q0 88 -86 88q-55 0 -105 -29v-370h-149v504l149 21v-55zM352.5 -159.5q-34.5 -55.5 -75.5 -80.5h-91q26 35 43 86t17 108h141q0 -58 -34.5 -113.5z" />
    <glyph glyph-name="ncaron" unicode="&#x148;" horiz-adv-x="619" 
d="M142 790h94l79 -103l79 103h94l-101 -194h-143zM217 470q31 24 73.5 40.5t92.5 16.5q81 0 127.5 -49t46.5 -130v-348h-149v311q0 88 -86 88q-55 0 -105 -29v-370h-149v504l149 21v-55z" />
    <glyph glyph-name="o" unicode="o" horiz-adv-x="588" 
d="M65.5 397.5q35.5 61.5 96 95.5t132.5 34t132.5 -34t96 -95.5t35.5 -139.5t-35.5 -139.5t-96 -95.5t-132.5 -34t-132.5 34t-96 95.5t-35.5 139.5t35.5 139.5zM381 360.5q-32 40.5 -87 40.5q-54 0 -86 -40.5t-32 -102.5t32 -102.5t86 -40.5q55 0 87 40.5t32 102.5
t-32 102.5z" />
    <glyph glyph-name="ograve" unicode="&#xf2;" horiz-adv-x="588" 
d="M110 790h176l63 -194h-96zM65.5 397.5q35.5 61.5 96 95.5t132.5 34t132.5 -34t96 -95.5t35.5 -139.5t-35.5 -139.5t-96 -95.5t-132.5 -34t-132.5 34t-96 95.5t-35.5 139.5t35.5 139.5zM381 360.5q-32 40.5 -87 40.5q-54 0 -86 -40.5t-32 -102.5t32 -102.5t86 -40.5
q55 0 87 40.5t32 102.5t-32 102.5z" />
    <glyph glyph-name="oacute" unicode="&#xf3;" horiz-adv-x="588" 
d="M302 790h175l-144 -194h-95zM65.5 397.5q35.5 61.5 96 95.5t132.5 34t132.5 -34t96 -95.5t35.5 -139.5t-35.5 -139.5t-96 -95.5t-132.5 -34t-132.5 34t-96 95.5t-35.5 139.5t35.5 139.5zM381 360.5q-32 40.5 -87 40.5q-54 0 -86 -40.5t-32 -102.5t32 -102.5t86 -40.5
q55 0 87 40.5t32 102.5t-32 102.5z" />
    <glyph glyph-name="ocircumflex" unicode="&#xf4;" horiz-adv-x="588" 
d="M467 596h-94l-79 103l-79 -103h-94l102 194h143zM65.5 397.5q35.5 61.5 96 95.5t132.5 34t132.5 -34t96 -95.5t35.5 -139.5t-35.5 -139.5t-96 -95.5t-132.5 -34t-132.5 34t-96 95.5t-35.5 139.5t35.5 139.5zM381 360.5q-32 40.5 -87 40.5q-54 0 -86 -40.5t-32 -102.5
t32 -102.5t86 -40.5q55 0 87 40.5t32 102.5t-32 102.5z" />
    <glyph glyph-name="otilde" unicode="&#xf5;" horiz-adv-x="588" 
d="M326.5 618.5q-17.5 10.5 -41.5 30.5q-20 17 -33 25.5t-26 8.5q-21 0 -29 -17.5t-12 -52.5h-81q1 78 34.5 130t89.5 52q19 0 36 -10.5t41 -30.5q20 -17 33 -25.5t26 -8.5q22 0 29.5 17t11.5 53h81q-1 -79 -34 -130.5t-89 -51.5q-19 0 -36.5 10.5zM65.5 397.5
q35.5 61.5 96 95.5t132.5 34t132.5 -34t96 -95.5t35.5 -139.5t-35.5 -139.5t-96 -95.5t-132.5 -34t-132.5 34t-96 95.5t-35.5 139.5t35.5 139.5zM381 360.5q-32 40.5 -87 40.5q-54 0 -86 -40.5t-32 -102.5t32 -102.5t86 -40.5q55 0 87 40.5t32 102.5t-32 102.5z" />
    <glyph glyph-name="odieresis" unicode="&#xf6;" horiz-adv-x="588" 
d="M133.5 753q22.5 22 56.5 22t56 -22.5t22 -53.5q0 -33 -22 -54.5t-56 -21.5q-35 0 -57 21.5t-22 54.5q0 32 22.5 54zM342.5 753q22.5 22 56.5 22t56 -22.5t22 -53.5q0 -33 -22 -54.5t-56 -21.5q-35 0 -57 21.5t-22 54.5q0 32 22.5 54zM65.5 397.5q35.5 61.5 96 95.5
t132.5 34t132.5 -34t96 -95.5t35.5 -139.5t-35.5 -139.5t-96 -95.5t-132.5 -34t-132.5 34t-96 95.5t-35.5 139.5t35.5 139.5zM381 360.5q-32 40.5 -87 40.5q-54 0 -86 -40.5t-32 -102.5t32 -102.5t86 -40.5q55 0 87 40.5t32 102.5t-32 102.5z" />
    <glyph glyph-name="omacron" unicode="&#x14d;" horiz-adv-x="588" 
d="M127 747h334v-107h-334v107zM65.5 397.5q35.5 61.5 96 95.5t132.5 34t132.5 -34t96 -95.5t35.5 -139.5t-35.5 -139.5t-96 -95.5t-132.5 -34t-132.5 34t-96 95.5t-35.5 139.5t35.5 139.5zM381 360.5q-32 40.5 -87 40.5q-54 0 -86 -40.5t-32 -102.5t32 -102.5t86 -40.5
q55 0 87 40.5t32 102.5t-32 102.5z" />
    <glyph glyph-name="obreve" unicode="&#x14f;" horiz-adv-x="588" 
d="M208.5 620q-37.5 24 -58.5 68t-21 102h90q2 -44 22.5 -67.5t52.5 -23.5q33 0 53.5 23.5t21.5 67.5h90q0 -58 -21 -102t-58.5 -68t-85.5 -24t-85.5 24zM65.5 397.5q35.5 61.5 96 95.5t132.5 34t132.5 -34t96 -95.5t35.5 -139.5t-35.5 -139.5t-96 -95.5t-132.5 -34
t-132.5 34t-96 95.5t-35.5 139.5t35.5 139.5zM381 360.5q-32 40.5 -87 40.5q-54 0 -86 -40.5t-32 -102.5t32 -102.5t86 -40.5q55 0 87 40.5t32 102.5t-32 102.5z" />
    <glyph glyph-name="ohungarumlaut" unicode="&#x151;" horiz-adv-x="588" 
d="M356 790l-123 -194h-88l62 194h149zM554 790l-123 -194h-89l63 194h149zM65.5 397.5q35.5 61.5 96 95.5t132.5 34t132.5 -34t96 -95.5t35.5 -139.5t-35.5 -139.5t-96 -95.5t-132.5 -34t-132.5 34t-96 95.5t-35.5 139.5t35.5 139.5zM381 360.5q-32 40.5 -87 40.5
q-54 0 -86 -40.5t-32 -102.5t32 -102.5t86 -40.5q55 0 87 40.5t32 102.5t-32 102.5z" />
    <glyph glyph-name="p" unicode="p" horiz-adv-x="616" 
d="M68 504l149 21v-54q25 24 63.5 40t83.5 16q66 0 116.5 -31.5t78 -88.5t27.5 -132q0 -83 -36.5 -148t-98.5 -101.5t-135 -36.5q-25 0 -51.5 5t-47.5 14v-236h-149v732zM296 107q62 0 99.5 43.5t37.5 116.5q0 61 -31 97.5t-86 36.5q-28 0 -55 -9t-44 -22v-245
q29 -18 79 -18z" />
    <glyph glyph-name="q" unicode="q" horiz-adv-x="616" 
d="M399 -228v275q-62 -58 -144 -58q-66 0 -117 32t-79.5 89.5t-28.5 132.5q0 83 36.5 148t99 100.5t137.5 35.5q30 0 63.5 -8.5t56.5 -24.5l125 27v-749h-149zM320 409q-63 0 -100 -42.5t-37 -115.5q0 -61 31.5 -98.5t85.5 -37.5q30 0 55.5 9t43.5 24v241q-30 20 -79 20z
" />
    <glyph glyph-name="r" unicode="r" horiz-adv-x="434" 
d="M68 504l149 21v-90q36 42 75.5 66t90.5 24q20 0 30 -2v-150q-31 7 -53 7q-43 0 -80.5 -16t-62.5 -45v-319h-149v504z" />
    <glyph glyph-name="racute" unicode="&#x155;" horiz-adv-x="434" 
d="M263 790h175l-144 -194h-95zM68 504l149 21v-90q36 42 75.5 66t90.5 24q20 0 30 -2v-150q-31 7 -53 7q-43 0 -80.5 -16t-62.5 -45v-319h-149v504z" />
    <glyph glyph-name="uni0157" unicode="&#x157;" horiz-adv-x="434" 
d="M68 504l149 21v-90q36 42 75.5 66t90.5 24q20 0 30 -2v-150q-31 7 -53 7q-43 0 -80.5 -16t-62.5 -45v-319h-149v504zM177.5 -159.5q-34.5 -55.5 -75.5 -80.5h-91q26 35 43 86t17 108h141q0 -58 -34.5 -113.5z" />
    <glyph glyph-name="rcaron" unicode="&#x159;" horiz-adv-x="434" 
d="M83 790h94l79 -103l79 103h94l-101 -194h-143zM68 504l149 21v-90q36 42 75.5 66t90.5 24q20 0 30 -2v-150q-31 7 -53 7q-43 0 -80.5 -16t-62.5 -45v-319h-149v504z" />
    <glyph glyph-name="s" unicode="s" horiz-adv-x="479" 
d="M126.5 113.5q48.5 -12.5 91.5 -12.5q32 0 51 12.5t19 33.5q0 19 -20 31t-62 27q-47 17 -78.5 33.5t-54 47.5t-22.5 78q0 45 25.5 82.5t71.5 59t104 21.5q44 0 80 -8.5t73 -25.5v-122q-33 21 -69 31.5t-70 10.5q-33 0 -50.5 -12.5t-17.5 -32.5q0 -18 19 -29t62 -27
q49 -18 80.5 -34t54.5 -46.5t23 -77.5q0 -50 -29 -87.5t-78.5 -57.5t-111.5 -20q-50 0 -98 10t-82 28v124q40 -25 88.5 -37.5z" />
    <glyph glyph-name="sacute" unicode="&#x15b;" horiz-adv-x="479" 
d="M261 790h175l-144 -194h-95zM126.5 113.5q48.5 -12.5 91.5 -12.5q32 0 51 12.5t19 33.5q0 19 -20 31t-62 27q-47 17 -78.5 33.5t-54 47.5t-22.5 78q0 45 25.5 82.5t71.5 59t104 21.5q44 0 80 -8.5t73 -25.5v-122q-33 21 -69 31.5t-70 10.5q-33 0 -50.5 -12.5t-17.5 -32.5
q0 -18 19 -29t62 -27q49 -18 80.5 -34t54.5 -46.5t23 -77.5q0 -50 -29 -87.5t-78.5 -57.5t-111.5 -20q-50 0 -98 10t-82 28v124q40 -25 88.5 -37.5z" />
    <glyph glyph-name="scircumflex" unicode="&#x15d;" horiz-adv-x="479" 
d="M426 596h-94l-79 103l-79 -103h-94l102 194h143zM126.5 113.5q48.5 -12.5 91.5 -12.5q32 0 51 12.5t19 33.5q0 19 -20 31t-62 27q-47 17 -78.5 33.5t-54 47.5t-22.5 78q0 45 25.5 82.5t71.5 59t104 21.5q44 0 80 -8.5t73 -25.5v-122q-33 21 -69 31.5t-70 10.5
q-33 0 -50.5 -12.5t-17.5 -32.5q0 -18 19 -29t62 -27q49 -18 80.5 -34t54.5 -46.5t23 -77.5q0 -50 -29 -87.5t-78.5 -57.5t-111.5 -20q-50 0 -98 10t-82 28v124q40 -25 88.5 -37.5z" />
    <glyph glyph-name="uni015F" unicode="&#x15f;" horiz-adv-x="479" 
d="M129 -232q-28 7 -48 19v73q46 -23 98 -23q25 0 42 9t17 24q0 18 -23.5 26.5t-63.5 8.5l36 85q-89 6 -149 37v124q40 -25 88.5 -37.5t91.5 -12.5q32 0 51 12.5t19 33.5q0 19 -20 31t-62 27q-47 17 -78.5 33.5t-54 47.5t-22.5 78q0 45 25.5 82.5t71.5 59t104 21.5
q44 0 80 -8.5t73 -25.5v-122q-33 21 -69 31.5t-70 10.5q-33 0 -50.5 -12.5t-17.5 -32.5q0 -18 19 -29t62 -27q49 -18 80.5 -34t54.5 -46.5t23 -77.5q0 -70 -55 -114.5t-141 -49.5l-15 -37q45 -6 72.5 -28t27.5 -60q0 -46 -41.5 -75t-97.5 -29q-30 0 -58 7z" />
    <glyph glyph-name="scaron" unicode="&#x161;" horiz-adv-x="479" 
d="M80 790h94l79 -103l79 103h94l-101 -194h-143zM126.5 113.5q48.5 -12.5 91.5 -12.5q32 0 51 12.5t19 33.5q0 19 -20 31t-62 27q-47 17 -78.5 33.5t-54 47.5t-22.5 78q0 45 25.5 82.5t71.5 59t104 21.5q44 0 80 -8.5t73 -25.5v-122q-33 21 -69 31.5t-70 10.5
q-33 0 -50.5 -12.5t-17.5 -32.5q0 -18 19 -29t62 -27q49 -18 80.5 -34t54.5 -46.5t23 -77.5q0 -50 -29 -87.5t-78.5 -57.5t-111.5 -20q-50 0 -98 10t-82 28v124q40 -25 88.5 -37.5z" />
    <glyph glyph-name="uni0219" unicode="&#x219;" horiz-adv-x="479" 
d="M126.5 113.5q48.5 -12.5 91.5 -12.5q32 0 51 12.5t19 33.5q0 19 -20 31t-62 27q-47 17 -78.5 33.5t-54 47.5t-22.5 78q0 45 25.5 82.5t71.5 59t104 21.5q44 0 80 -8.5t73 -25.5v-122q-33 21 -69 31.5t-70 10.5q-33 0 -50.5 -12.5t-17.5 -32.5q0 -18 19 -29t62 -27
q49 -18 80.5 -34t54.5 -46.5t23 -77.5q0 -50 -29 -87.5t-78.5 -57.5t-111.5 -20q-50 0 -98 10t-82 28v124q40 -25 88.5 -37.5zM256.5 -159.5q-34.5 -55.5 -75.5 -80.5h-91q26 35 43 86t17 108h141q0 -58 -34.5 -113.5z" />
    <glyph glyph-name="t" unicode="t" horiz-adv-x="450" 
d="M84 623l150 20v-127h174l-18 -112h-156v-223q0 -34 19 -50.5t51 -16.5q33 0 58.5 5t59.5 20v-120q-64 -29 -147 -29q-84 0 -137.5 43.5t-53.5 129.5v241h-70v112h70v107z" />
    <glyph glyph-name="uni0163" unicode="&#x163;" horiz-adv-x="450" 
d="M153 -232q-28 7 -48 19v73q46 -23 98 -23q25 0 42 9t17 24q0 18 -23.5 26.5t-63.5 8.5l38 92q-59 13 -94 55t-35 111v241h-70v112h70v107l150 20v-127h174l-18 -112h-156v-223q0 -34 19 -50.5t51 -16.5q33 0 58.5 5t59.5 20v-120q-64 -29 -147 -29h-9l-16 -37
q45 -6 72.5 -28t27.5 -60q0 -46 -41.5 -75t-97.5 -29q-30 0 -58 7z" />
    <glyph glyph-name="tcaron" unicode="&#x165;" horiz-adv-x="450" 
d="M470 818l-100 -243h-86l31 243h155zM84 623l150 20v-127h174l-18 -112h-156v-223q0 -34 19 -50.5t51 -16.5q33 0 58.5 5t59.5 20v-120q-64 -29 -147 -29q-84 0 -137.5 43.5t-53.5 129.5v241h-70v112h70v107z" />
    <glyph glyph-name="uni021B" unicode="&#x21b;" horiz-adv-x="450" 
d="M84 623l150 20v-127h174l-18 -112h-156v-223q0 -34 19 -50.5t51 -16.5q33 0 58.5 5t59.5 20v-120q-64 -29 -147 -29q-84 0 -137.5 43.5t-53.5 129.5v241h-70v112h70v107zM298.5 -159.5q-34.5 -55.5 -75.5 -80.5h-91q26 35 43 86t17 108h141q0 -58 -34.5 -113.5z" />
    <glyph glyph-name="u" unicode="u" horiz-adv-x="611" 
d="M393 -9v55q-29 -24 -69 -40.5t-88 -16.5q-80 0 -127.5 49.5t-47.5 129.5v348h150v-312q0 -89 82 -89q28 0 51.5 7.5t48.5 21.5v372h150v-504z" />
    <glyph glyph-name="ugrave" unicode="&#xf9;" horiz-adv-x="611" 
d="M117 790h176l63 -194h-96zM393 -9v55q-29 -24 -69 -40.5t-88 -16.5q-80 0 -127.5 49.5t-47.5 129.5v348h150v-312q0 -89 82 -89q28 0 51.5 7.5t48.5 21.5v372h150v-504z" />
    <glyph glyph-name="uacute" unicode="&#xfa;" horiz-adv-x="611" 
d="M310 790h175l-144 -194h-95zM393 -9v55q-29 -24 -69 -40.5t-88 -16.5q-80 0 -127.5 49.5t-47.5 129.5v348h150v-312q0 -89 82 -89q28 0 51.5 7.5t48.5 21.5v372h150v-504z" />
    <glyph glyph-name="ucircumflex" unicode="&#xfb;" horiz-adv-x="611" 
d="M474 596h-94l-79 103l-79 -103h-94l102 194h143zM393 -9v55q-29 -24 -69 -40.5t-88 -16.5q-80 0 -127.5 49.5t-47.5 129.5v348h150v-312q0 -89 82 -89q28 0 51.5 7.5t48.5 21.5v372h150v-504z" />
    <glyph glyph-name="udieresis" unicode="&#xfc;" horiz-adv-x="611" 
d="M140.5 753q22.5 22 56.5 22t56 -22.5t22 -53.5q0 -33 -22 -54.5t-56 -21.5q-35 0 -57 21.5t-22 54.5q0 32 22.5 54zM349.5 753q22.5 22 56.5 22t56 -22.5t22 -53.5q0 -33 -22 -54.5t-56 -21.5q-35 0 -57 21.5t-22 54.5q0 32 22.5 54zM393 -9v55q-29 -24 -69 -40.5
t-88 -16.5q-80 0 -127.5 49.5t-47.5 129.5v348h150v-312q0 -89 82 -89q28 0 51.5 7.5t48.5 21.5v372h150v-504z" />
    <glyph glyph-name="utilde" unicode="&#x169;" horiz-adv-x="611" 
d="M333.5 618.5q-17.5 10.5 -41.5 30.5q-20 17 -33 25.5t-26 8.5q-21 0 -29 -17.5t-12 -52.5h-81q1 78 34.5 130t89.5 52q19 0 36 -10.5t41 -30.5q20 -17 33 -25.5t26 -8.5q22 0 29.5 17t11.5 53h81q-1 -79 -34 -130.5t-89 -51.5q-19 0 -36.5 10.5zM393 -9v55
q-29 -24 -69 -40.5t-88 -16.5q-80 0 -127.5 49.5t-47.5 129.5v348h150v-312q0 -89 82 -89q28 0 51.5 7.5t48.5 21.5v372h150v-504z" />
    <glyph glyph-name="umacron" unicode="&#x16b;" horiz-adv-x="611" 
d="M134 747h334v-107h-334v107zM393 -9v55q-29 -24 -69 -40.5t-88 -16.5q-80 0 -127.5 49.5t-47.5 129.5v348h150v-312q0 -89 82 -89q28 0 51.5 7.5t48.5 21.5v372h150v-504z" />
    <glyph glyph-name="ubreve" unicode="&#x16d;" horiz-adv-x="611" 
d="M215.5 620q-37.5 24 -58.5 68t-21 102h90q2 -44 22.5 -67.5t52.5 -23.5q33 0 53.5 23.5t21.5 67.5h90q0 -58 -21 -102t-58.5 -68t-85.5 -24t-85.5 24zM393 -9v55q-29 -24 -69 -40.5t-88 -16.5q-80 0 -127.5 49.5t-47.5 129.5v348h150v-312q0 -89 82 -89q28 0 51.5 7.5
t48.5 21.5v372h150v-504z" />
    <glyph glyph-name="uring" unicode="&#x16f;" horiz-adv-x="611" 
d="M385 618q-35 -35 -84 -35q-31 0 -58 16t-43 43.5t-16 59.5q0 49 34.5 83t82.5 34q49 0 84 -34t35 -83t-35 -84zM263.5 663q15.5 -16 37.5 -16t38 16t16 39q0 22 -15.5 37.5t-38.5 15.5q-21 0 -37 -15.5t-16 -37.5q0 -23 15.5 -39zM393 -9v55q-29 -24 -69 -40.5t-88 -16.5
q-80 0 -127.5 49.5t-47.5 129.5v348h150v-312q0 -89 82 -89q28 0 51.5 7.5t48.5 21.5v372h150v-504z" />
    <glyph glyph-name="uhungarumlaut" unicode="&#x171;" horiz-adv-x="611" 
d="M363 790l-123 -194h-88l62 194h149zM561 790l-123 -194h-89l63 194h149zM393 -9v55q-29 -24 -69 -40.5t-88 -16.5q-80 0 -127.5 49.5t-47.5 129.5v348h150v-312q0 -89 82 -89q28 0 51.5 7.5t48.5 21.5v372h150v-504z" />
    <glyph glyph-name="uogonek" unicode="&#x173;" horiz-adv-x="611" 
d="M358.5 -214.5q-32.5 24.5 -32.5 71.5q0 74 67 135v54q-29 -24 -69 -40.5t-88 -16.5q-80 0 -127.5 49.5t-47.5 129.5v348h150v-312q0 -89 82 -89q28 0 51.5 7.5t48.5 21.5v372h150v-504q-63 -18 -91 -53t-28 -68q0 -19 11 -29.5t27 -10.5q15 0 25 6v-88q-30 -8 -51 -8
q-45 0 -77.5 24.5z" />
    <glyph glyph-name="v" unicode="v" horiz-adv-x="558" 
d="M0 516h162l126 -330l125 330h145l-219 -517h-120z" />
    <glyph glyph-name="w" unicode="w" horiz-adv-x="800" 
d="M560 191l104 325h137l-189 -517h-107l-105 324l-104 -324h-108l-188 517h152l106 -324l100 324h98z" />
    <glyph glyph-name="wcircumflex" unicode="&#x175;" horiz-adv-x="800" 
d="M572 596h-94l-79 103l-79 -103h-94l102 194h143zM560 191l104 325h137l-189 -517h-107l-105 324l-104 -324h-108l-188 517h152l106 -324l100 324h98z" />
    <glyph glyph-name="wgrave" unicode="&#x1e81;" horiz-adv-x="800" 
d="M215 790h176l63 -194h-96zM560 191l104 325h137l-189 -517h-107l-105 324l-104 -324h-108l-188 517h152l106 -324l100 324h98z" />
    <glyph glyph-name="wacute" unicode="&#x1e83;" horiz-adv-x="800" 
d="M406 790h175l-144 -194h-95zM560 191l104 325h137l-189 -517h-107l-105 324l-104 -324h-108l-188 517h152l106 -324l100 324h98z" />
    <glyph glyph-name="wdieresis" unicode="&#x1e85;" horiz-adv-x="800" 
d="M238.5 753q22.5 22 56.5 22t56 -22.5t22 -53.5q0 -33 -22 -54.5t-56 -21.5q-35 0 -57 21.5t-22 54.5q0 32 22.5 54zM447.5 753q22.5 22 56.5 22t56 -22.5t22 -53.5q0 -33 -22 -54.5t-56 -21.5q-35 0 -57 21.5t-22 54.5q0 32 22.5 54zM560 191l104 325h137l-189 -517h-107
l-105 324l-104 -324h-108l-188 517h152l106 -324l100 324h98z" />
    <glyph glyph-name="x" unicode="x" horiz-adv-x="569" 
d="M165 0h-157l195 262l-184 254h169l101 -147l104 147h156l-185 -249l197 -267h-169l-113 162z" />
    <glyph glyph-name="y" unicode="y" horiz-adv-x="558" 
d="M162 516l127 -310l124 310h145l-228 -511q-59 -133 -126.5 -188.5t-162.5 -55.5q-35 0 -58 9v119q24 -8 50 -8q40 0 70 16t55.5 52.5t53.5 101.5l-212 465h162z" />
    <glyph glyph-name="yacute" unicode="&#xfd;" horiz-adv-x="558" 
d="M295 790h175l-144 -194h-95zM162 516l127 -310l124 310h145l-228 -511q-59 -133 -126.5 -188.5t-162.5 -55.5q-35 0 -58 9v119q24 -8 50 -8q40 0 70 16t55.5 52.5t53.5 101.5l-212 465h162z" />
    <glyph glyph-name="ydieresis" unicode="&#xff;" horiz-adv-x="558" 
d="M126.5 753q22.5 22 56.5 22t56 -22.5t22 -53.5q0 -33 -22 -54.5t-56 -21.5q-35 0 -57 21.5t-22 54.5q0 32 22.5 54zM335.5 753q22.5 22 56.5 22t56 -22.5t22 -53.5q0 -33 -22 -54.5t-56 -21.5q-35 0 -57 21.5t-22 54.5q0 32 22.5 54zM162 516l127 -310l124 310h145
l-228 -511q-59 -133 -126.5 -188.5t-162.5 -55.5q-35 0 -58 9v119q24 -8 50 -8q40 0 70 16t55.5 52.5t53.5 101.5l-212 465h162z" />
    <glyph glyph-name="ycircumflex" unicode="&#x177;" horiz-adv-x="558" 
d="M460 596h-94l-79 103l-79 -103h-94l102 194h143zM162 516l127 -310l124 310h145l-228 -511q-59 -133 -126.5 -188.5t-162.5 -55.5q-35 0 -58 9v119q24 -8 50 -8q40 0 70 16t55.5 52.5t53.5 101.5l-212 465h162z" />
    <glyph glyph-name="ygrave" unicode="&#x1ef3;" horiz-adv-x="558" 
d="M103 790h176l63 -194h-96zM162 516l127 -310l124 310h145l-228 -511q-59 -133 -126.5 -188.5t-162.5 -55.5q-35 0 -58 9v119q24 -8 50 -8q40 0 70 16t55.5 52.5t53.5 101.5l-212 465h162z" />
    <glyph glyph-name="z" unicode="z" horiz-adv-x="526" 
d="M39 0v87l249 317h-243v112h440v-86l-256 -318h277l-18 -112h-449z" />
    <glyph glyph-name="zacute" unicode="&#x17a;" horiz-adv-x="526" 
d="M280 790h175l-144 -194h-95zM39 0v87l249 317h-243v112h440v-86l-256 -318h277l-18 -112h-449z" />
    <glyph glyph-name="zdotaccent" unicode="&#x17c;" horiz-adv-x="526" 
d="M209.5 757.5q24.5 24.5 62.5 24.5t62.5 -24.5t24.5 -60.5t-24.5 -60t-62.5 -24t-62.5 24t-24.5 60t24.5 60.5zM39 0v87l249 317h-243v112h440v-86l-256 -318h277l-18 -112h-449z" />
    <glyph glyph-name="zcaron" unicode="&#x17e;" horiz-adv-x="526" 
d="M99 790h94l79 -103l79 103h94l-101 -194h-143zM39 0v87l249 317h-243v112h440v-86l-256 -318h277l-18 -112h-449z" />
    <glyph glyph-name="ordfeminine" unicode="&#xaa;" horiz-adv-x="389" 
d="M233 397q-40 -42 -94 -42q-46 0 -74.5 26.5t-28.5 69.5q0 55 50.5 85t146.5 32v7q0 47 -56 47q-62 0 -120 -34v87q26 16 62.5 26t74.5 10q73 0 111 -36t38 -98v-140q0 -45 7 -74h-109zM207.5 436.5q12.5 4.5 25.5 14.5v54q-49 -3 -71.5 -12t-22.5 -31q0 -15 10.5 -22.5
t28.5 -7.5q17 0 29.5 4.5zM334 308v-77h-274v77h274z" />
    <glyph glyph-name="ordmasculine" unicode="&#xba;" horiz-adv-x="412" 
d="M294.5 688.5q40.5 -22.5 64.5 -62.5t24 -92t-24 -92.5t-64.5 -63t-88.5 -22.5t-88.5 22.5t-64.5 63t-24 92.5t24 92t64.5 62.5t88.5 22.5t88.5 -22.5zM154.5 473.5q18.5 -23.5 51.5 -23.5t51.5 23.5t18.5 60.5t-18.5 61t-51.5 24t-51.5 -24t-18.5 -61t18.5 -60.5zM69 231
v77h274v-77h-274z" />
    <glyph glyph-name="germandbls" unicode="&#xdf;" horiz-adv-x="689" 
d="M489.5 508q-34.5 -34 -34.5 -68q0 -23 18.5 -41t57.5 -45q39 -26 65.5 -49t45 -57t18.5 -79q0 -52 -30 -93.5t-80.5 -64t-108.5 -22.5q-44 0 -85.5 10t-74.5 27v124q39 -25 80 -37t79 -12q39 0 61 16t22 41q0 26 -21 46.5t-63 49.5q-40 29 -63.5 49t-40.5 49t-17 66
q0 53 33 94.5t99 92.5q-2 35 -29.5 58t-71.5 23q-58 0 -94 -41t-36 -119v-526h-149v529q0 86 37 148t101.5 93.5t145.5 31.5q82 0 138.5 -29t85.5 -76t31 -101q-85 -54 -119.5 -88z" />
    <glyph glyph-name="ae" unicode="&#xe6;" horiz-adv-x="849" 
d="M493 14.5q-59 25.5 -97 71.5q-41 -47 -90.5 -72t-115.5 -25q-67 0 -109.5 40t-42.5 104q0 83 78.5 131t221.5 52v12q0 37 -23 57t-70 20q-43 0 -89 -13.5t-88 -38.5v120q39 24 92.5 39t106.5 15q114 0 162 -65q32 31 73.5 48t89.5 17q75 0 126 -34.5t76 -93.5t25 -131
q0 -13 -2 -41h-340q12 -57 58.5 -87t111.5 -30q37 0 71.5 6.5t73.5 24.5v-116q-38 -19 -78 -27.5t-89 -8.5q-73 0 -132 25.5zM516 388.5q-29 -25.5 -39 -72.5h197q1 43 -21 70.5t-67 27.5q-41 0 -70 -25.5zM297.5 113.5q30.5 16.5 56.5 48.5q-11 34 -14 65h-4
q-78 -4 -118.5 -22.5t-40.5 -56.5q0 -24 16 -37.5t41 -13.5q33 0 63.5 16.5z" />
    <glyph glyph-name="aeacute" unicode="&#x1fd;" horiz-adv-x="849" 
d="M436 790h175l-144 -194h-95zM493 14.5q-59 25.5 -97 71.5q-41 -47 -90.5 -72t-115.5 -25q-67 0 -109.5 40t-42.5 104q0 83 78.5 131t221.5 52v12q0 37 -23 57t-70 20q-43 0 -89 -13.5t-88 -38.5v120q39 24 92.5 39t106.5 15q114 0 162 -65q32 31 73.5 48t89.5 17
q75 0 126 -34.5t76 -93.5t25 -131q0 -13 -2 -41h-340q12 -57 58.5 -87t111.5 -30q37 0 71.5 6.5t73.5 24.5v-116q-38 -19 -78 -27.5t-89 -8.5q-73 0 -132 25.5zM516 388.5q-29 -25.5 -39 -72.5h197q1 43 -21 70.5t-67 27.5q-41 0 -70 -25.5zM297.5 113.5
q30.5 16.5 56.5 48.5q-11 34 -14 65h-4q-78 -4 -118.5 -22.5t-40.5 -56.5q0 -24 16 -37.5t41 -13.5q33 0 63.5 16.5z" />
    <glyph glyph-name="eth" unicode="&#xf0;" horiz-adv-x="589" 
d="M160 23q-60 34 -95 95t-35 140q0 75 33 132.5t89.5 89t125.5 31.5q53 0 99 -24q-27 62 -79 109l-202 -81v100l113 46q-68 38 -173 72l133 68q102 -37 174 -87l143 58v-100l-62 -25q134 -137 134 -349q0 -90 -35.5 -160.5t-96.5 -109.5t-133 -39q-73 0 -133 34zM381 163
q32 49 32 136q0 37 -5 75q-17 14 -41.5 21.5t-53.5 7.5q-57 0 -97 -39t-40 -106q0 -66 33.5 -105t86.5 -39t85 49z" />
    <glyph glyph-name="oslash" unicode="&#xf8;" horiz-adv-x="588" 
d="M183 12l-31 -48h-101l62 95q-39 36 -61 87t-22 112q0 78 35.5 139.5t96 95.5t132.5 34q59 0 110 -23l33 50h100l-63 -96q40 -37 62 -88t22 -112q0 -78 -35.5 -139.5t-96 -95.5t-132.5 -34q-59 0 -111 23zM187 171l152 233q-22 8 -45 8q-58 0 -92.5 -44t-34.5 -110
q0 -49 20 -87zM387 147.5q35 44.5 35 110.5q0 50 -21 88l-153 -234q21 -9 46 -9q58 0 93 44.5z" />
    <glyph glyph-name="oslashacute" unicode="&#x1ff;" horiz-adv-x="589" 
d="M302 790h175l-144 -194h-95zM183 12l-31 -48h-101l62 95q-39 36 -61 87t-22 112q0 78 35.5 139.5t96 95.5t132.5 34q59 0 110 -23l33 50h100l-63 -96q40 -37 62 -88t22 -112q0 -78 -35.5 -139.5t-96 -95.5t-132.5 -34q-59 0 -111 23zM187 171l152 233q-22 8 -45 8
q-58 0 -92.5 -44t-34.5 -110q0 -49 20 -87zM387 147.5q35 44.5 35 110.5q0 50 -21 88l-153 -234q21 -9 46 -9q58 0 93 44.5z" />
    <glyph glyph-name="thorn" unicode="&#xfe;" horiz-adv-x="616" 
d="M68 -228v1011l149 19v-331q25 24 63.5 40t83.5 16q66 0 116.5 -31.5t78 -88.5t27.5 -132q0 -83 -36.5 -148t-98.5 -101.5t-135 -36.5q-25 0 -51.5 5t-47.5 14v-236h-149zM296 107q62 0 99.5 43.5t37.5 116.5q0 61 -31 97.5t-86 36.5q-28 0 -55 -9t-44 -22v-245
q29 -18 79 -18z" />
    <glyph glyph-name="dcroat" unicode="&#x111;" horiz-adv-x="622" 
d="M255 -11q-66 0 -117 32t-79.5 89.5t-28.5 132.5q0 83 36.5 148t99 100.5t137.5 35.5q54 0 96 -21v92h-141v99h141v86l149 19v-105h75v-99h-75v-586l-149 -21v56q-62 -58 -144 -58zM320 409q-63 0 -100 -42.5t-37 -115.5q0 -61 31.5 -98.5t85.5 -37.5q30 0 55.5 9t43.5 24
v241q-30 20 -79 20z" />
    <glyph glyph-name="hbar" unicode="&#x127;" horiz-adv-x="625" 
d="M75 0v598h-76v99h76v86l149 19v-105h142v-99h-142v-128q31 24 73.5 40.5t92.5 16.5q81 0 127.5 -49t46.5 -130v-348h-149v311q0 88 -86 88q-55 0 -105 -29v-370h-149z" />
    <glyph glyph-name="dotlessi" unicode="&#x131;" 
d="M217 525v-525h-149v504z" />
    <glyph glyph-name="kgreenlandic" unicode="&#x138;" horiz-adv-x="602" 
d="M217 0h-149v507l149 19v-239l197 229h170l-207 -235l233 -281h-177l-216 259v-259z" />
    <glyph glyph-name="ldot" unicode="&#x140;" horiz-adv-x="466" 
d="M217 802v-802h-149v783zM314.5 433.5q24.5 24.5 62.5 24.5t62.5 -24.5t24.5 -60.5t-24.5 -60t-62.5 -24t-62.5 24t-24.5 60t24.5 60.5z" />
    <glyph glyph-name="lslash" unicode="&#x142;" horiz-adv-x="334" 
d="M91 286l-85 -48v119l85 48v378l149 19v-324l88 50v-118l-88 -50v-360h-149v286z" />
    <glyph glyph-name="eng" unicode="&#x14b;" horiz-adv-x="619" 
d="M386 -105q21 63 22 150v266q0 88 -86 88q-55 0 -105 -29v-370h-149v504l149 21v-55q31 24 73.5 40.5t92.5 16.5q81 0 127.5 -49t46.5 -130v-320q-1 -84 -21 -145t-56 -111h-152q37 60 58 123z" />
    <glyph glyph-name="oe" unicode="&#x153;" horiz-adv-x="929" 
d="M794 -2.5q-40 -8.5 -88 -8.5q-68 0 -124 24.5t-95 68.5q-36 -44 -86.5 -68.5t-106.5 -24.5q-72 0 -132.5 34t-96 96t-35.5 140t35.5 139t96 95t132.5 34q56 0 105 -23t84 -66q35 43 83 66t104 23q76 0 128 -34.5t77 -93.5t25 -131q0 -13 -2 -41h-340q13 -57 59 -87
t111 -30q37 0 71 6.5t73 24.5v-116q-38 -19 -78 -27.5zM598 388.5q-29 -25.5 -39 -72.5h196q1 42 -21 70t-66 28q-41 0 -70 -25.5zM381 361.5q-32 40.5 -87 40.5q-54 0 -86 -40.5t-32 -102.5q0 -63 32 -103.5t86 -40.5q55 0 87 40.5t32 103.5q0 62 -32 102.5z" />
    <glyph glyph-name="tbar" unicode="&#x167;" horiz-adv-x="463" 
d="M282 -10q-84 0 -137.5 43.5t-53.5 129.5v70h-69v100h69v79h-70v105h70v106l150 20v-126h173l-17 -105h-156v-79h171l-15 -100h-156v-52q0 -34 18.5 -50.5t51.5 -16.5t59 5.5t59 19.5v-120q-64 -29 -147 -29z" />
    <glyph glyph-name="zero" unicode="0" horiz-adv-x="670" 
d="M488 665q68 -46 107 -128t39 -187t-39 -187t-107 -128t-153 -46t-153 46t-107 128t-39 187t39 187t107 128t153 46t153 -46zM442 189q39 63 39 161t-39 161t-107 63q-67 0 -106.5 -63t-39.5 -161t39.5 -161t106.5 -63q68 0 107 63z" />
    <glyph glyph-name="one" unicode="1" horiz-adv-x="429" 
d="M191 529l-171 -53v130l262 105h65v-711h-156v529z" />
    <glyph glyph-name="two" unicode="2" horiz-adv-x="574" 
d="M323 544.5q-26 25.5 -77 25.5q-48 0 -103 -22.5t-103 -57.5v147q50 32 112 53t129 21q73 0 126.5 -26t81 -72.5t27.5 -106.5q0 -94 -73 -185.5t-205 -186.5h308v-134h-515v109q103 84 168.5 144t107.5 117t42 104q0 45 -26 70.5z" />
    <glyph glyph-name="three" unicode="3" horiz-adv-x="567" 
d="M116 134.5q47 -13.5 99 -13.5q72 0 116 29.5t44 81.5q0 53 -49.5 79t-163.5 28v45l159 181h-264v135h442v-115l-157 -170q82 -15 136.5 -61.5t54.5 -127.5q0 -71 -42 -124.5t-111.5 -83t-149.5 -29.5q-116 0 -199 48v134q38 -23 85 -36.5z" />
    <glyph glyph-name="four" unicode="4" horiz-adv-x="650" 
d="M345 173h-320v103q34 97 109 222.5t149 201.5h180q-83 -84 -157 -196t-116 -213h155v153h137v-153h145v-118h-145v-173h-137v173z" />
    <glyph glyph-name="five" unicode="5" horiz-adv-x="552" 
d="M295 327.5q-65 29.5 -203 38.5l28 334h371v-135h-256l-8 -93q129 -15 209 -70t80 -164q0 -75 -41 -131.5t-110 -87t-149 -30.5q-115 0 -199 50v135q38 -25 85 -39t98 -14q73 0 116.5 30.5t43.5 83.5q0 63 -65 92.5z" />
    <glyph glyph-name="six" unicode="6" horiz-adv-x="615" 
d="M544 103q-36 -55 -95 -84.5t-128 -29.5q-82 0 -146.5 42t-101.5 116t-37 168q0 117 49.5 207t138 139.5t202.5 49.5q35 0 67.5 -5.5t56.5 -14.5v-127q-54 17 -123 17q-99 0 -165 -57.5t-78 -165.5q31 40 77.5 63t95.5 23q59 0 110 -26t82 -74.5t31 -112.5q0 -73 -36 -128
zM401.5 140.5q30.5 30.5 30.5 82.5q0 47 -30.5 76.5t-83.5 29.5q-72 0 -132 -70q11 -75 48 -112t87 -37t80.5 30.5z" />
    <glyph glyph-name="seven" unicode="7" horiz-adv-x="560" 
d="M263.5 281.5q71.5 139.5 116.5 283.5h-359v135h524v-108q-17 -78 -61.5 -189.5t-104.5 -221t-121 -181.5h-174q108 142 179.5 281.5z" />
    <glyph glyph-name="eight" unicode="8" horiz-adv-x="617" 
d="M168 15q-63 26 -100 71t-37 100q0 57 37.5 99t99.5 67q-99 62 -99 155q0 59 32 105.5t87.5 72.5t123.5 26q70 0 125.5 -23.5t86.5 -65t31 -92.5q0 -97 -121 -153q48 -22 79.5 -44t52 -56.5t20.5 -85.5q0 -55 -36.5 -101.5t-100.5 -73.5t-142 -27q-76 0 -139 26zM417 514
q0 39 -27 64.5t-76 25.5q-41 0 -68 -23t-27 -56q0 -30 17 -47.5t57 -36.5l60 -27q64 45 64 100zM391.5 128.5q32.5 24.5 32.5 59.5q0 26 -20 43.5t-67 39.5l-92 42q-66 -41 -66 -105q0 -44 36.5 -74t92.5 -30q51 0 83.5 24.5z" />
    <glyph glyph-name="nine" unicode="9" horiz-adv-x="615" 
d="M71 597q36 55 95 84.5t128 29.5q82 0 146.5 -42t101.5 -116t37 -168q0 -117 -49.5 -207t-138 -139.5t-202.5 -49.5q-35 0 -67.5 5.5t-56.5 14.5v127q54 -17 123 -17q99 0 165 57.5t78 165.5q-31 -40 -77.5 -63t-95.5 -23q-59 0 -110 26t-82 74.5t-31 112.5q0 73 36 128z
M213.5 559.5q-30.5 -30.5 -30.5 -82.5q0 -47 30.5 -76.5t83.5 -29.5q73 0 132 70q-11 75 -48 112t-87 37t-80.5 -30.5z" />
    <glyph glyph-name="underscore" unicode="_" horiz-adv-x="413" 
d="M343 -27v-126h-273v126h273z" />
    <glyph glyph-name="hyphen" unicode="-" horiz-adv-x="413" 
d="M343 348v-126h-273v126h273z" />
    <glyph glyph-name="endash" unicode="&#x2013;" horiz-adv-x="649" 
d="M580 348v-119h-510v119h510z" />
    <glyph glyph-name="emdash" unicode="&#x2014;" horiz-adv-x="1105" 
d="M1035 348v-119h-965v119h965z" />
    <glyph glyph-name="parenleft" unicode="(" horiz-adv-x="472" 
d="M311.5 80q60.5 -123 147.5 -202h-162q-82 78 -146.5 195t-64.5 261t64.5 261.5t146.5 195.5h162q-87 -79 -147.5 -202t-60.5 -255q0 -131 60.5 -254z" />
    <glyph glyph-name="parenright" unicode=")" horiz-adv-x="472" 
d="M160.5 80q60.5 123 60.5 254q0 132 -60.5 255t-147.5 202h162q82 -78 146.5 -195.5t64.5 -261.5t-64.5 -261t-146.5 -195h-162q87 79 147.5 202z" />
    <glyph glyph-name="bracketleft" unicode="[" horiz-adv-x="409" 
d="M378 -7v-115h-301v913h301v-115h-158v-683h158z" />
    <glyph glyph-name="bracketright" unicode="]" horiz-adv-x="409" 
d="M31 676v115h301v-913h-301v115h158v683h-158z" />
    <glyph glyph-name="braceleft" unicode="{" horiz-adv-x="426" 
d="M73 396q34 0 50 14.5t16 55.5l-24 173q0 47 24 81.5t63.5 52.5t84.5 18q25 0 56.5 -5.5t51.5 -13.5v-104q-11 5 -27 8t-29 3q-34 0 -59.5 -21t-25.5 -59l20 -157q0 -45 -34.5 -73t-74.5 -35q40 -6 74.5 -34t34.5 -73l-20 -158q0 -37 25.5 -58t59.5 -21q13 0 29 3t27 8
v-104q-19 -9 -50.5 -14t-57.5 -5q-45 0 -84.5 18t-63.5 52.5t-24 81.5l24 172q0 42 -16 56.5t-50 14.5h-51v123h51z" />
    <glyph glyph-name="braceright" unicode="}" horiz-adv-x="426" 
d="M353 273q-34 0 -50 -14.5t-16 -56.5l24 -172q0 -47 -24 -81.5t-63.5 -52.5t-84.5 -18q-26 0 -57.5 5t-50.5 14v104q11 -5 27 -8t29 -3q34 0 59.5 21t25.5 58l-20 158q0 45 34.5 73t74.5 34q-40 7 -74.5 35t-34.5 73l20 157q0 38 -25.5 59t-59.5 21q-13 0 -29 -3t-27 -8
v104q20 8 51.5 13.5t56.5 5.5q45 0 84.5 -18t63.5 -52.5t24 -81.5l-24 -173q0 -41 16 -55.5t50 -14.5h51v-123h-51z" />
    <glyph glyph-name="numbersign" unicode="#" horiz-adv-x="783" 
d="M301 198l-27 -144h-110l27 144h-139l14 101h143l20 109h-149l15 101h153l26 141h112l-26 -141h123l26 141h111l-26 -141h137l-14 -101h-142l-20 -109h148l-14 -101h-153l-27 -144h-111l27 144h-124zM341 408l-21 -109h124l20 109h-123z" />
    <glyph glyph-name="percent" unicode="%" horiz-adv-x="846" 
d="M318.5 662q44.5 -50 44.5 -129t-44.5 -129.5t-117.5 -50.5t-118.5 50.5t-45.5 129.5t45.5 129t118.5 50t117.5 -50zM146 -11l440 723h115l-441 -723h-114zM153.5 467q16.5 -25 47.5 -25t47.5 25.5t16.5 65.5t-16.5 65t-47.5 25t-47.5 -24.5t-16.5 -65.5t16.5 -66z
M527.5 39.5q-44.5 50.5 -44.5 129.5t44.5 129t117.5 50t118 -50t45 -129t-45 -129.5t-118 -50.5t-117.5 50.5zM598 234.5q-16 -24.5 -16 -65.5q0 -40 16 -65t47 -25t47.5 24.5t16.5 65.5t-16.5 65.5t-47.5 24.5t-47 -24.5z" />
    <glyph glyph-name="quotesingle" unicode="'" horiz-adv-x="272" 
d="M227 701l-60 -299h-99v299h159z" />
    <glyph glyph-name="quotedbl" unicode="&#x22;" horiz-adv-x="488" 
d="M227 701l-60 -299h-99v299h159zM443 701l-60 -299h-99v299h159z" />
    <glyph glyph-name="quoteleft" unicode="&#x2018;" horiz-adv-x="273" 
d="M62 527.5q17 57.5 42.5 104.5t48.5 71h97q-23 -52 -38 -131.5t-15 -153.5h-152q0 52 17 109.5z" />
    <glyph glyph-name="quoteright" unicode="&#x2019;" horiz-adv-x="273" 
d="M211 594q-17 -57 -42 -104.5t-49 -71.5h-97q23 53 38 132t15 153h152q0 -52 -17 -109z" />
    <glyph glyph-name="quotedblleft" unicode="&#x201c;" horiz-adv-x="501" 
d="M62 527.5q17 57.5 42.5 104.5t48.5 71h97q-23 -52 -38 -131.5t-15 -153.5h-152q0 52 17 109.5zM290 527.5q17 57.5 42.5 104.5t48.5 71h97q-23 -52 -38 -131.5t-15 -153.5h-152q0 52 17 109.5z" />
    <glyph glyph-name="quotedblright" unicode="&#x201d;" horiz-adv-x="501" 
d="M211 594q-17 -57 -42 -104.5t-49 -71.5h-97q23 53 38 132t15 153h152q0 -52 -17 -109zM439 594q-17 -57 -42 -104.5t-49 -71.5h-97q23 53 38 132t15 153h152q0 -52 -17 -109z" />
    <glyph glyph-name="quotesinglbase" unicode="&#x201a;" horiz-adv-x="273" 
d="M211 22.5q-17 -57.5 -42 -105t-49 -71.5h-97q23 53 38 132.5t15 154.5h152q0 -53 -17 -110.5z" />
    <glyph glyph-name="quotedblbase" unicode="&#x201e;" horiz-adv-x="500" 
d="M211 22.5q-17 -57.5 -42 -105t-49 -71.5h-97q23 53 38 132.5t15 154.5h152q0 -53 -17 -110.5zM439 22.5q-17 -57.5 -42 -105t-49 -71.5h-97q23 53 38 132.5t15 154.5h152q0 -53 -17 -110.5z" />
    <glyph glyph-name="guilsinglleft" unicode="&#x2039;" horiz-adv-x="375" 
d="M219 45l-176 208l176 210h113l-121 -210l121 -208h-113z" />
    <glyph glyph-name="guilsinglright" unicode="&#x203a;" horiz-adv-x="375" 
d="M43 463h113l176 -210l-176 -208h-113l121 208z" />
    <glyph glyph-name="guillemotleft" unicode="&#xab;" horiz-adv-x="627" 
d="M219 45l-176 208l176 210h113l-121 -210l121 -208h-113zM471 45l-176 208l176 210h113l-121 -210l121 -208h-113z" />
    <glyph glyph-name="guillemotright" unicode="&#xbb;" horiz-adv-x="627" 
d="M43 463h113l176 -210l-176 -208h-113l121 208zM295 463h113l176 -210l-176 -208h-113l121 208z" />
    <glyph glyph-name="asterisk" unicode="*" horiz-adv-x="475" 
d="M237 535l-48 -102l-22 -31l-93 66l25 33l81 74l-111 13l-38 12l35 108l39 -12l97 -55l-22 111v39h114v-40l-22 -110l97 55l39 12l35 -108l-38 -12l-112 -13l82 -74l24 -33l-91 -66l-23 31z" />
    <glyph glyph-name="dagger" unicode="&#x2020;" horiz-adv-x="403" 
d="M148 378v152l20 72l-84 -20h-46v104h45l85 -20l-20 73v52h105v-52l-20 -73l87 20h44v-104h-45l-85 20l19 -72v-152h-105z" />
    <glyph glyph-name="daggerdbl" unicode="&#x2021;" horiz-adv-x="403" 
d="M148 378v38l20 68l-85 -21h-45v91h46l77 -19v98l-77 -19h-46v92h45l85 -21l-20 68v38h105v-38l-20 -68l87 21h44v-92h-45l-79 19v-98l79 19h45v-91h-44l-87 21l20 -68v-38h-105z" />
    <glyph glyph-name="period" unicode="." horiz-adv-x="282" 
d="M73 156.5q28 28.5 68 28.5t68.5 -28.5t28.5 -68.5t-28 -68.5t-69 -28.5q-40 0 -68 28t-28 69q0 40 28 68.5z" />
    <glyph glyph-name="comma" unicode="," horiz-adv-x="282" 
d="M207 46q-17 -58 -42.5 -106.5t-48.5 -72.5h-98q23 53 38.5 133.5t15.5 155.5h152q0 -52 -17 -110z" />
    <glyph glyph-name="colon" unicode=":" horiz-adv-x="282" 
d="M73 485.5q28 28.5 68 28.5t68.5 -28.5t28.5 -68.5t-28 -68.5t-69 -28.5q-40 0 -68 28t-28 69q0 40 28 68.5zM73 156.5q28 28.5 68 28.5t68.5 -28.5t28.5 -68.5t-28 -68.5t-69 -28.5q-40 0 -68 28t-28 69q0 40 28 68.5z" />
    <glyph glyph-name="semicolon" unicode=";" horiz-adv-x="282" 
d="M73 485.5q28 28.5 68 28.5t68.5 -28.5t28.5 -68.5t-28 -68.5t-69 -28.5q-40 0 -68 28t-28 69q0 40 28 68.5zM205 53q-17 -58 -42.5 -106.5t-48.5 -72.5h-98q23 53 38.5 133.5t15.5 155.5h152q0 -52 -17 -110z" />
    <glyph glyph-name="ellipsis" unicode="&#x2026;" horiz-adv-x="857" 
d="M73 156.5q28 28.5 68 28.5t68.5 -28.5t28.5 -68.5t-28 -68.5t-69 -28.5q-40 0 -68 28t-28 69q0 40 28 68.5zM360 156.5q28 28.5 68 28.5t68.5 -28.5t28.5 -68.5t-28 -68.5t-69 -28.5q-40 0 -68 28t-28 69q0 40 28 68.5zM649 156.5q28 28.5 68 28.5t68.5 -28.5t28.5 -68.5
t-28 -68.5t-69 -28.5q-40 0 -68 28t-28 69q0 40 28 68.5z" />
    <glyph glyph-name="exclam" unicode="!" horiz-adv-x="279" 
d="M45 700h187l-44 -449h-97zM70.5 156.5q28.5 28.5 68.5 28.5t68.5 -28.5t28.5 -68.5t-28 -68.5t-69 -28.5q-40 0 -68.5 28.5t-28.5 68.5t28.5 68.5z" />
    <glyph glyph-name="exclamdown" unicode="&#xa1;" horiz-adv-x="279" 
d="M208.5 543.5q-28.5 -28.5 -68.5 -28.5t-68.5 28.5t-28.5 68.5q0 41 28.5 69t68.5 28t68.5 -28.5t28.5 -68.5t-28.5 -68.5zM234 0h-187l44 449h97z" />
    <glyph glyph-name="question" unicode="?" horiz-adv-x="523" 
d="M300.5 547q-24.5 22 -75.5 22q-87 0 -194 -80v148q109 74 229 74q73 0 125 -26t79 -72t27 -105q0 -49 -21.5 -82.5t-62.5 -76.5q-30 -30 -46 -51.5t-21 -47.5h-159q5 35 25 64t55 65q32 33 48 56t16 49q0 41 -24.5 63zM191 156.5q28 28.5 68 28.5t68.5 -28.5t28.5 -68.5
t-28 -68.5t-69 -28.5q-40 0 -68 28t-28 69q0 40 28 68.5z" />
    <glyph glyph-name="questiondown" unicode="&#xbf;" horiz-adv-x="523" 
d="M331 543.5q-28 -28.5 -68 -28.5t-68.5 28.5t-28.5 68.5q0 41 28.5 69t68.5 28t68 -28t28 -69q0 -40 -28 -68.5zM221.5 153q24.5 -22 75.5 -22q87 0 194 80v-148q-109 -74 -229 -74q-73 0 -125 26t-79 72t-27 105q0 49 21.5 82.5t62.5 76.5q31 30 46.5 51.5t20.5 47.5h159
q-5 -35 -25 -64t-55 -65q-32 -33 -48 -56t-16 -49q0 -41 24.5 -63z" />
    <glyph glyph-name="slash" unicode="/" horiz-adv-x="475" 
d="M462 791l-301 -913h-148l300 913h149z" />
    <glyph glyph-name="backslash" unicode="\" horiz-adv-x="475" 
d="M320 -122l-301 913h149l300 -913h-148z" />
    <glyph glyph-name="bar" unicode="|" horiz-adv-x="356" 
d="M109 791h139v-913h-139v913z" />
    <glyph glyph-name="at" unicode="@" horiz-adv-x="1021" 
d="M651 35.5q-33 14.5 -58 43.5q-24 -24 -62 -40.5t-77 -16.5q-59 0 -97.5 34t-38.5 89q0 72 68 113t194 43v13q0 32 -20 49.5t-59 17.5q-74 0 -154 -44v104q33 21 80 33.5t93 12.5q92 0 141.5 -46.5t49.5 -125.5v-191q5 -5 14 -8.5t19 -3.5q50 0 82 51.5t32 141.5
t-43.5 160t-116.5 109t-160 39q-106 0 -191 -49t-134 -136t-49 -197q0 -106 51 -187.5t138 -126t190 -44.5q85 0 165.5 24.5t139.5 70.5v-110q-63 -43 -138 -63.5t-168 -20.5q-131 0 -243 56.5t-178.5 160.5t-66.5 240q0 134 64 244.5t174.5 173.5t244.5 63q116 0 214.5 -51
t157 -142.5t58.5 -206.5q0 -88 -33.5 -154.5t-88 -101.5t-114.5 -35q-47 0 -80 14.5zM580 137v93q-63 -3 -96 -20t-33 -51q0 -22 14.5 -33.5t37.5 -11.5q39 0 77 23z" />
    <glyph glyph-name="ampersand" unicode="&#x26;" horiz-adv-x="718" 
d="M288 -11q-76 0 -135 27.5t-92.5 78.5t-33.5 118q0 61 35 111.5t91 79.5q-19 27 -28 54.5t-9 60.5q0 55 28.5 99t79.5 68.5t116 24.5q46 0 90 -13t73 -36v-133q-78 61 -152 61q-40 0 -64 -21.5t-24 -56.5q0 -25 13.5 -45t43.5 -52l170 -176q33 67 34 149h137
q-1 -66 -22 -128t-60 -114l141 -146h-182l-52 54q-92 -65 -198 -65zM403 138l-174 180q-27 -14 -44 -41t-17 -60q0 -48 34 -79.5t89 -31.5q61 0 112 32z" />
    <glyph glyph-name="section" unicode="&#xa7;" horiz-adv-x="583" 
d="M263.5 499q15.5 -17 46.5 -38l148 -96q83 -55 83 -129q0 -39 -21 -70.5t-48 -45.5l-41 39q10 16 10 34q0 19 -15.5 38.5t-48.5 42.5l-187 132q-38 27 -55.5 59t-17.5 72q0 48 25.5 88t70.5 63.5t103 23.5q41 0 75.5 -8.5t69.5 -27.5v-121q-32 22 -68 33.5t-69 11.5
t-54.5 -17t-21.5 -45q0 -22 15.5 -39zM319.5 39q-14.5 16 -45.5 37l-149 98q-83 54 -83 129q0 39 20.5 69.5t48.5 46.5l41 -39q-10 -16 -10 -33q0 -38 64 -83l188 -132q71 -50 71 -130q0 -47 -25.5 -87.5t-71.5 -64.5t-103 -24q-75 0 -146 37v121q32 -22 69 -34t70 -12
t54.5 17.5t21.5 45.5q0 22 -14.5 38z" />
    <glyph glyph-name="paragraph" unicode="&#xb6;" horiz-adv-x="624" 
d="M283 271h-26q-63 0 -114.5 26t-81.5 74t-30 111q0 64 30 113.5t82 77.5t114 28h26v-430zM469 -62.5q-22 -64.5 -67 -116.5h-149q53 57 78 122t25 162v596h227v-112h-92v-486q0 -101 -22 -165.5z" />
    <glyph glyph-name="periodcentered" unicode="&#xb7;" horiz-adv-x="333" 
d="M98 349.5q28 28.5 68 28.5t68.5 -28.5t28.5 -68.5t-28 -68.5t-69 -28.5q-40 0 -68 28t-28 69q0 40 28 68.5z" />
    <glyph glyph-name="bullet" unicode="&#x2022;" horiz-adv-x="517" 
d="M164.5 114q-43.5 26 -69 69.5t-25.5 93.5q0 52 25.5 95.5t68.5 69t95 25.5q51 0 94 -25.5t68.5 -69t25.5 -95.5q0 -50 -25.5 -93.5t-68.5 -69.5t-94 -26t-94.5 26z" />
    <glyph glyph-name="plus" unicode="+" horiz-adv-x="601" 
d="M354 86h-107v201h-201v107h201v201h107v-201h201v-107h-201v-201z" />
    <glyph glyph-name="minus" unicode="&#x2212;" horiz-adv-x="601" 
d="M555 394v-107h-509v107h509z" />
    <glyph glyph-name="divide" unicode="&#xf7;" horiz-adv-x="601" 
d="M236.5 601q24.5 25 59.5 25q34 0 59 -25.5t25 -59.5t-25 -58t-59 -24q-35 0 -59.5 24t-24.5 58q0 35 24.5 60zM555 394v-107h-509v107h509zM236.5 197.5q24.5 25.5 59.5 25.5q34 0 59 -25.5t25 -60.5q0 -33 -25 -57t-59 -24q-35 0 -59.5 23.5t-24.5 57.5q0 35 24.5 60.5z
" />
    <glyph glyph-name="multiply" unicode="&#xd7;" horiz-adv-x="601" 
d="M133 84l-76 75l168 168l-168 168l76 75l168 -167l167 167l76 -75l-168 -168l168 -168l-76 -75l-167 168z" />
    <glyph glyph-name="equal" unicode="=" horiz-adv-x="601" 
d="M555 497v-107h-509v107h509zM555 285v-107h-509v107h509z" />
    <glyph glyph-name="less" unicode="&#x3c;" horiz-adv-x="601" 
d="M542 601v-130l-359 -123l359 -122v-131l-483 182v142z" />
    <glyph glyph-name="greater" unicode="&#x3e;" horiz-adv-x="601" 
d="M70 94v131l359 122l-359 123v130l483 -182v-142z" />
    <glyph glyph-name="dollar" unicode="$" horiz-adv-x="559" 
d="M215 55q-111 8 -179 41v135q48 -27 116 -42.5t116 -15.5t73.5 14t25.5 41q0 22 -26.5 35t-84.5 29q-63 18 -104 35.5t-71 50.5t-30 84q0 59 45 106t119 65v140h123v-131q70 -5 146 -36v-132q-39 22 -94.5 35t-97.5 13q-41 0 -63 -14t-22 -38q0 -22 27 -35.5t86 -30.5
q62 -17 103 -34t70.5 -49.5t29.5 -82.5q0 -67 -51 -113.5t-134 -62.5v-139h-123v132z" />
    <glyph glyph-name="cent" unicode="&#xa2;" horiz-adv-x="504" 
d="M360 80v-157h-125v171q-91 26 -147 91t-56 158q0 94 56 159t147 91v180h125v-166q54 -3 107 -22v-125q-58 20 -121 20q-70 0 -118.5 -34.5t-48.5 -102.5t48.5 -102t118.5 -34q62 0 123 21v-125q-56 -20 -109 -23z" />
    <glyph glyph-name="sterling" unicode="&#xa3;" horiz-adv-x="668" 
d="M102 467h119q49 121 118 182.5t173 61.5q32 0 57 -4.5t51 -16.5v-122q-55 18 -101 18q-50 0 -85.5 -27.5t-65.5 -91.5h142l-29 -90h-412zM59 0v89l59 135h-98l34 91h417l-30 -91h-176l-49 -116h376v-108h-533z" />
    <glyph glyph-name="yen" unicode="&#xa5;" horiz-adv-x="734" 
d="M107 463h107l-187 237h174l169 -228l166 228h172l-187 -237h106v-90h-520v90zM442 0h-150v220h-185v90h520v-90h-185v-220z" />
    <glyph glyph-name="Euro" unicode="&#x20ac;" horiz-adv-x="628" 
d="M34 474h69q28 110 117.5 173.5t211.5 63.5q39 0 74 -7.5t74 -24.5v-128q-62 36 -139 36q-64 0 -112 -29.5t-70 -83.5h219l-31 -91h-413v91zM506.5 -4q-34.5 -7 -74.5 -7q-124 0 -213.5 65t-115.5 176h-69v91h395l-33 -91h-139q21 -55 69.5 -85.5t114.5 -30.5q78 0 139 35
v-127q-39 -19 -73.5 -26z" />
    <glyph glyph-name="uni0192" unicode="&#x192;" horiz-adv-x="603" 
d="M117 404h113l17 84q23 107 85 165t156 58q41 0 72 -11v-117q-22 7 -53 7q-97 0 -120 -114l-15 -72h152l-24 -99h-407zM314 111q-23 -106 -86.5 -165t-156.5 -59q-43 0 -76 13v116q25 -8 57 -8q47 0 79 28.5t43 86.5l26 127h143z" />
    <glyph glyph-name="uni20B9" unicode="&#x20b9;" horiz-adv-x="665" 
d="M483 132.5q64 -79.5 117 -132.5h-187q-45 45 -94.5 112t-93.5 139h-187l34 91h200q71 21 93 88h-327l34 91h295q-11 43 -48.5 65.5t-97.5 22.5h-183l34 91h571l-34 -91h-146q40 -38 50 -88h130l-34 -91h-97q-13 -57 -49.5 -95.5t-84.5 -59.5q41 -63 105 -142.5z" />
    <glyph glyph-name="uni20AA" unicode="&#x20aa;" horiz-adv-x="814" 
d="M495 643.5q60 -56.5 60 -157.5v-302h-116v294q0 48 -16 73.5t-46.5 34.5t-82.5 9h-101v-595h-115v700h253q104 0 164 -56.5zM676 56.5q-60 -56.5 -164 -56.5h-253v499h115v-394h101q52 0 82.5 9t46.5 34.5t16 73.5v478h116v-486q0 -101 -60 -157.5z" />
    <glyph glyph-name="colonmonetary" unicode="&#x20a1;" horiz-adv-x="545" 
d="M227 96l-45 -173h-90l55 210q-54 35 -84.5 88.5t-30.5 121.5q0 97 59.5 163t154.5 90l46 177h91l-43 -165h4q25 0 62 -7l45 172h90l-81 -313q-49 20 -114 20q-70 0 -118.5 -34.5t-48.5 -102.5t48.5 -102t118.5 -34q62 0 123 21v-125q-41 -15 -87 -21l-41 -159h-90l41 159
q-31 4 -65 14z" />
    <glyph glyph-name="uni17DB" unicode="&#x17db;" horiz-adv-x="571" 
d="M102 -91q-74 41 -74 114q0 54 42 88t104 34q28 0 50 -8v-75q-16 4 -30 4q-25 0 -40.5 -11t-15.5 -31q0 -29 38 -44t90 -15v301h-161l24 100h137q-1 58 -39 85.5t-121 37.5q0 61 35.5 111.5t96.5 80.5t133 30q95 0 160 -36v-115q-76 32 -157 32q-55 0 -90 -19.5t-44 -45.5
q79 -9 122.5 -50.5t43.5 -107.5v-3h130l-24 -100h-106v-398h-102q-128 0 -202 41z" />
    <glyph glyph-name="uni20A9" unicode="&#x20a9;" horiz-adv-x="951" 
d="M257 0l-62 232h-160v89h136l-18 68h-118v89h94l-59 222h147l105 -445l101 445h109l101 -445l106 445h138l-59 -222h98v-89h-122l-18 -68h140v-89h-163l-62 -232h-103l-114 474l-115 -474h-102z" />
    <glyph glyph-name="uni20B8" unicode="&#x20b8;" horiz-adv-x="675" 
d="M640 700v-106h-605v106h605zM640 532v-106h-225v-426h-155v426h-225v106h605z" />
    <glyph glyph-name="uni20AD" unicode="&#x20ad;" horiz-adv-x="750" 
d="M123 309h-88v123h88v268h156v-700h-156v309zM738 0h-172l-271 362l241 338h167l-203 -268h165v-123h-165z" />
    <glyph glyph-name="uni20AE" unicode="&#x20ae;" horiz-adv-x="675" 
d="M260 412v160h-225v128h605v-128h-225v-112l135 41v-92l-424 -130v92zM260 168l-134 -41v91l424 130v-91l-135 -41v-216h-155v168z" />
    <glyph glyph-name="uni20B1" unicode="&#x20b1;" horiz-adv-x="781" 
d="M145 0v332h-110v90h110v67h-110v90h110v121h234q81 0 142.5 -32t93.5 -89h131v-90h-104q1 -8 1 -26q0 -21 -3 -41h106v-90h-140q-34 -51 -92.5 -78.5t-134.5 -27.5h-81v-226h-153zM460.5 543.5q-31.5 28.5 -85.5 28.5h-77v-218h77q54 0 85.5 29t31.5 80q0 52 -31.5 80.5z
" />
    <glyph glyph-name="uni0E3F" unicode="&#xe3f;" horiz-adv-x="632" 
d="M363 -89h-125v156h-161v558h161v145h125v-145q101 -4 149 -40t48 -104q0 -46 -32.5 -77t-77.5 -40q62 -11 102.5 -45.5t40.5 -92.5q0 -76 -57.5 -117.5t-162.5 -41.5h-10v-156zM326 399q47 0 69 15t22 46q0 32 -21.5 46t-69.5 14h-108v-121h108zM353 304h-135v-130h135
q92 0 92 65t-92 65z" />
    <glyph glyph-name="uni20B4" unicode="&#x20b4;" horiz-adv-x="674" 
d="M399 473q20 20 20 51t-25.5 48.5t-73.5 17.5q-89 0 -178 -43v122q43 20 94 31t99 11q76 0 128.5 -22.5t79 -61.5t26.5 -88q0 -38 -16 -66h86v-90h-604v90h364zM231.5 11.5q-58.5 22.5 -89 61t-30.5 86.5q0 42 22 73h-99v89h604v-89h-353q-12 -11 -17.5 -23t-5.5 -29
q0 -32 32 -51t93 -19q48 0 102.5 11.5t100.5 36.5v-121q-45 -23 -103 -35.5t-117 -12.5q-81 0 -139.5 22.5z" />
    <glyph glyph-name="uni20AB" unicode="&#x20ab;" horiz-adv-x="657" 
d="M251 130q-55 0 -102 22t-74.5 62.5t-27.5 93.5q0 58 33 100.5t86 64.5t111 22q86 0 145 -39v103h-223v88h223v53h132v-53h75v-88h-75v-402l-132 -24v62q-70 -65 -171 -65zM372.5 388.5q-30.5 8.5 -68.5 8.5q-48 0 -81 -22t-33 -67q0 -40 31.5 -60t75.5 -20q38 0 70.5 14
t54.5 34v89q-19 15 -49.5 23.5zM560 82v-82h-452v82h452z" />
    <glyph glyph-name="asciicircum" unicode="^" horiz-adv-x="552" 
d="M507 406h-118l-113 170l-113 -170h-119l160 295h144z" />
    <glyph glyph-name="asciitilde" unicode="~" horiz-adv-x="600" 
d="M340.5 196.5q-18.5 11.5 -47.5 34.5q-23 19 -37 28t-29 9q-28 0 -41.5 -21.5t-21.5 -63.5h-94q2 61 21 111.5t52 79.5t75 29q22 0 41 -11t47 -34q23 -19 37 -28t29 -9q28 0 41.5 21t22.5 64h94q-2 -61 -21 -111.5t-52.5 -80t-75.5 -29.5q-22 0 -40.5 11.5z" />
    <glyph glyph-name="acute" unicode="&#xb4;" horiz-adv-x="536" 
d="M219 790h175l-144 -194h-95z" />
    <glyph glyph-name="grave" unicode="`" horiz-adv-x="536" 
d="M142 790h176l63 -194h-96z" />
    <glyph glyph-name="hungarumlaut" unicode="&#x2dd;" horiz-adv-x="536" 
d="M275 790l-123 -194h-88l62 194h149zM473 790l-123 -194h-89l63 194h149z" />
    <glyph glyph-name="circumflex" unicode="&#x2c6;" horiz-adv-x="536" 
d="M442 596h-94l-79 103l-79 -103h-94l102 194h143z" />
    <glyph glyph-name="caron" unicode="&#x2c7;" horiz-adv-x="536" 
d="M96 790h94l79 -103l79 103h94l-101 -194h-143z" />
    <glyph glyph-name="breve" unicode="&#x2d8;" horiz-adv-x="536" 
d="M182.5 620q-37.5 24 -58.5 68t-21 102h90q2 -44 22.5 -67.5t52.5 -23.5q33 0 53.5 23.5t21.5 67.5h90q0 -58 -21 -102t-58.5 -68t-85.5 -24t-85.5 24z" />
    <glyph glyph-name="tilde" unicode="&#x2dc;" horiz-adv-x="536" 
d="M305.5 618.5q-17.5 10.5 -41.5 30.5q-20 17 -33 25.5t-26 8.5q-21 0 -29 -17.5t-12 -52.5h-81q1 78 34.5 130t89.5 52q19 0 36 -10.5t41 -30.5q20 -17 33 -25.5t26 -8.5q22 0 29.5 17t11.5 53h81q-1 -79 -34 -130.5t-89 -51.5q-19 0 -36.5 10.5z" />
    <glyph glyph-name="macron" unicode="&#xaf;" horiz-adv-x="536" 
d="M101 747h334v-107h-334v107z" />
    <glyph glyph-name="dieresis" unicode="&#xa8;" horiz-adv-x="536" 
d="M107.5 753q22.5 22 56.5 22t56 -22.5t22 -53.5q0 -33 -22 -54.5t-56 -21.5q-35 0 -57 21.5t-22 54.5q0 32 22.5 54zM316.5 753q22.5 22 56.5 22t56 -22.5t22 -53.5q0 -33 -22 -54.5t-56 -21.5q-35 0 -57 21.5t-22 54.5q0 32 22.5 54z" />
    <glyph glyph-name="dotaccent" unicode="&#x2d9;" horiz-adv-x="536" 
d="M205.5 757.5q24.5 24.5 62.5 24.5t62.5 -24.5t24.5 -60.5t-24.5 -60t-62.5 -24t-62.5 24t-24.5 60t24.5 60.5z" />
    <glyph glyph-name="ring" unicode="&#x2da;" horiz-adv-x="536" 
d="M346 618q-35 -35 -84 -35q-31 0 -58 16t-43 43.5t-16 59.5q0 49 34.5 83t82.5 34q49 0 84 -34t35 -83t-35 -84zM224.5 663q15.5 -16 37.5 -16t38 16t16 39q0 22 -15.5 37.5t-38.5 15.5q-21 0 -37 -15.5t-16 -37.5q0 -23 15.5 -39z" />
    <glyph glyph-name="cedilla" unicode="&#xb8;" horiz-adv-x="536" 
d="M340.5 -210q-41.5 -29 -97.5 -29q-30 0 -58 7t-48 19v73q46 -23 98 -23q25 0 42 9t17 24q0 18 -23.5 26.5t-63.5 8.5l43 103h55l-23 -55q45 -6 72.5 -28t27.5 -60q0 -46 -41.5 -75z" />
    <glyph glyph-name="ogonek" unicode="&#x2db;" horiz-adv-x="536" 
d="M315.5 -53q-18.5 -30 -18.5 -56q0 -19 11 -29.5t27 -10.5q15 0 25 6v-88q-30 -8 -51 -8q-45 0 -77.5 24.5t-32.5 71.5q0 103 133 183l37 -34q-35 -29 -53.5 -59z" />
    <glyph glyph-name="copyright" unicode="&#xa9;" horiz-adv-x="802" 
d="M583.5 665.5q82.5 -46.5 130.5 -129t48 -185.5t-48 -185.5t-130.5 -129.5t-181.5 -47t-182 47t-131 129.5t-48 185.5t48 185.5t131 129t182 46.5t181.5 -46.5zM550 93.5q67 38.5 106 106t39 151.5t-39 151.5t-106 106t-148 38.5t-149 -38.5t-107.5 -106t-39.5 -151.5
t39.5 -152t107.5 -106t149 -38t148 38.5zM253 459.5q25 46.5 69 72t99 25.5q47 0 84 -21v-101q-34 22 -72 22q-40 0 -67.5 -28t-27.5 -75t27.5 -73.5t67.5 -26.5t72 21v-100q-38 -22 -84 -22q-55 0 -99 25t-69 71t-25 105t25 105.5z" />
    <glyph glyph-name="registered" unicode="&#xae;" horiz-adv-x="802" 
d="M583.5 665.5q82.5 -46.5 130.5 -129t48 -185.5t-48 -185.5t-130.5 -129.5t-181.5 -47t-182 47t-131 129.5t-48 185.5t48 185.5t131 129t182 46.5t181.5 -46.5zM550 93.5q67 38.5 106 106t39 151.5t-39 151.5t-106 106t-148 38.5t-149 -38.5t-107.5 -106t-39.5 -151.5
t39.5 -152t107.5 -106t149 -38t148 38.5zM392 301h-32v-136h-101v387h149q69 0 108 -32.5t39 -89.5q0 -37 -19.5 -63t-49.5 -42l93 -160h-114zM416 375q15 5 25.5 17t10.5 31q0 22 -15 34t-44 12h-33v-94h56z" />
    <glyph glyph-name="trademark" unicode="&#x2122;" horiz-adv-x="797" 
d="M131 622h-100v79h295v-79h-99v-260h-96v260zM471 568h-3l-18 -206h-91l33 339h102l56 -166h4l56 166h101l34 -339h-93l-16 206h-5l-50 -136h-59z" />
    <glyph glyph-name="degree" unicode="&#xb0;" horiz-adv-x="416" 
d="M292.5 689.5q38.5 -22.5 61 -61t22.5 -83.5q0 -46 -22.5 -84.5t-61 -61.5t-84.5 -23q-45 0 -83.5 23t-61 61.5t-22.5 84.5q0 45 22.5 83.5t61 61t83.5 22.5q46 0 84.5 -22.5zM266.5 486.5q24.5 24.5 24.5 58.5t-24.5 58.5t-58.5 24.5t-58.5 -24.5t-24.5 -58.5t24.5 -58.5
t58.5 -24.5t58.5 24.5z" />
    <glyph glyph-name="uni00200326" horiz-adv-x="444" 
d="M261.5 -159.5q-34.5 -55.5 -75.5 -80.5h-91q26 35 43 86t17 108h141q0 -58 -34.5 -113.5z" />
    <glyph glyph-name="uni00200326.alt" horiz-adv-x="444" 
d="M163 710.5q34 55.5 75 79.5h90q-25 -34 -42 -85.5t-17 -108.5h-140q0 59 34 114.5z" />
    <glyph glyph-name="i.dot" 
d="M79.5 757.5q24.5 24.5 62.5 24.5t62.5 -24.5t24.5 -60.5t-24.5 -60t-62.5 -24t-62.5 24t-24.5 60t24.5 60.5zM217 525v-525h-149v504z" />
    <glyph glyph-name="uni00B9" unicode="&#xb9;" horiz-adv-x="239" 
d="M92 587l-86 -23v86l149 57h40v-370h-103v250z" />
    <glyph glyph-name="uni00B3" unicode="&#xb3;" horiz-adv-x="308" 
d="M115 417q34 0 53 11.5t19 32.5q0 22 -23 32.5t-80 11.5v29l72 79h-124v88h242v-73l-73 -76q90 -24 90 -97q0 -55 -48 -89t-115 -34q-63 0 -108 24v87q48 -26 95 -26z" />
    <glyph glyph-name="uni00B2" unicode="&#xb2;" horiz-adv-x="315" 
d="M130 614q-23 0 -52 -11.5t-55 -28.5v95q63 38 133 38q61 0 95 -30t34 -78t-31 -87t-99 -86h146v-89h-282v72q80 63 117.5 100t37.5 66q0 39 -44 39z" />
    <glyph glyph-name="uni0237" unicode="&#x237;" 
d="M196 -117q-20 -61 -56 -111h-152q37 58 58 121.5t22 151.5v459l149 21v-497q-1 -84 -21 -145z" />
    <glyph glyph-name="f_f.short" horiz-adv-x="715" 
d="M90 404h-69v112h69v13q0 76 27.5 134t79.5 90t123 32q42 0 76 -11v-117q-17 6 -45 6q-52 0 -81.5 -34t-29.5 -96v-17h184v36q0 75 29 131.5t82 87.5t121 31q36 0 67 -10v-117q-16 5 -36 5q-54 0 -83.5 -33.5t-29.5 -94.5v-36h149l-18 -112h-131v-404h-150v404h-184v-404
h-150v404z" />
    <glyph glyph-name="f.short" horiz-adv-x="380" 
d="M90 0v404h-69v112h69v36q0 75 29 131.5t82 87.5t121 31q36 0 67 -10v-117q-16 5 -36 5q-54 0 -83.5 -33.5t-29.5 -94.5v-36h149l-18 -112h-131v-404h-150z" />
    <glyph glyph-name="five.op" horiz-adv-x="537" 
d="M281 208q-69 33 -206 42l29 330h371v-128h-257l-7 -102q128 -15 208 -70t80 -164q0 -75 -41 -131.5t-110 -87t-149 -30.5q-115 0 -199 50v127q38 -24 85.5 -38t98.5 -14q74 0 120 31.5t46 86.5q0 65 -69 98z" />
    <glyph glyph-name="six.op" horiz-adv-x="615" 
d="M544 103q-36 -55 -95 -84.5t-128 -29.5q-82 0 -146.5 42t-101.5 116t-37 168q0 117 49.5 207t138 139.5t202.5 49.5q36 0 69.5 -6t56.5 -16v-119q-52 18 -125 18q-101 0 -169 -62t-78 -174q29 42 77 67t100 25q59 0 110 -26t82 -74.5t31 -112.5q0 -73 -36 -128zM404 140
q31 31 31 83q0 49 -31 79.5t-85 30.5q-77 0 -137 -74q11 -75 50 -112.5t91 -37.5q50 0 81 31z" />
    <glyph glyph-name="eight.op" horiz-adv-x="613" 
d="M167 15q-63 26 -99.5 71t-36.5 100q0 57 37.5 98.5t98.5 67.5q-99 62 -99 155q0 59 32 105.5t87 72.5t123 26q70 0 125 -23.5t85.5 -65t30.5 -92.5q0 -98 -120 -153q72 -31 111.5 -71.5t39.5 -114.5q0 -55 -36.5 -101.5t-99.5 -73.5t-141 -27q-75 0 -138 26zM416 514
q0 40 -26.5 66.5t-77.5 26.5q-45 0 -72.5 -24t-27.5 -58q0 -30 17 -47.5t56 -35.5l65 -29q66 47 66 101zM392.5 127.5q34.5 23.5 34.5 60.5q0 26 -19.5 43.5t-66.5 39.5l-97 43q-33 -20 -50 -47t-17 -59q0 -44 36.5 -74t92.5 -30q52 0 86.5 23.5z" />
    <glyph glyph-name="zero.op" horiz-adv-x="635" 
d="M175.5 27.5q-64.5 38.5 -102 107.5t-37.5 156t37.5 155t102 106.5t142.5 38.5t142.5 -38.5t102 -106.5t37.5 -155t-37.5 -156t-102 -107.5t-142.5 -38.5t-142.5 38.5zM386.5 133.5q30.5 22.5 47.5 63.5t17 94q0 52 -17 92.5t-47.5 63t-68.5 22.5q-59 0 -96.5 -49.5
t-37.5 -128.5q0 -80 37.5 -130t96.5 -50q38 0 68.5 22.5z" />
    <glyph glyph-name="nine.op" horiz-adv-x="615" 
d="M71 477q36 55 95 84.5t128 29.5q82 0 146.5 -42t101.5 -116t37 -168q0 -117 -49.5 -207t-138 -139.5t-202.5 -49.5q-36 0 -69.5 6t-56.5 16v119q52 -18 125 -18q101 0 169 62t78 174q-29 -42 -77 -67t-100 -25q-59 0 -110 26t-82 74.5t-31 112.5q0 73 36 128zM211 440
q-31 -31 -31 -83q0 -49 31 -79.5t85 -30.5q77 0 137 74q-11 75 -50 112.5t-91 37.5q-50 0 -81 -31z" />
    <glyph glyph-name="two.op" horiz-adv-x="569" 
d="M314.5 436q-24.5 20 -72.5 20t-104.5 -27t-101.5 -68v136q47 41 110.5 67.5t130.5 26.5q108 0 166 -49.5t58 -131.5q0 -83 -63.5 -147.5t-194.5 -135.5h297v-127h-511v106q115 70 181 117t97.5 85t31.5 73t-24.5 55z" />
    <glyph glyph-name="seven.op" horiz-adv-x="556" 
d="M379 445h-362v135h520v-108q-18 -79 -62 -191t-103.5 -222t-120.5 -181h-167q204 270 295 567z" />
    <glyph glyph-name="one.op" horiz-adv-x="429" 
d="M192 409l-158 -50v124l249 101h60v-584h-151v409z" />
    <glyph glyph-name="three.op" horiz-adv-x="556" 
d="M207 -9q72 0 118.5 31.5t46.5 83.5q0 54 -52 82t-165 29v46l171 189h-277v128h443v-108l-161 -178q83 -15 138.5 -62t55.5 -128q0 -71 -41.5 -125t-111 -83t-150.5 -29q-116 0 -199 48v128q84 -52 184 -52z" />
    <glyph glyph-name="four.op" horiz-adv-x="643" 
d="M340 60h-315v96q34 97 109 222.5t149 201.5h173q-83 -84 -157 -196t-116 -213h157v151h138v-151h142v-111h-142v-182h-138v182z" />
    </font>
</defs>
</svg>
